<?xml version="1.0" encoding="utf-8"?>
<!-- Generator: Adobe Illustrator 24.2.3, SVG Export Plug-In . SVG Version: 6.00 Build 0)  -->
<svg version="1.1" id="Layer_1" xmlns="http://www.w3.org/2000/svg" xmlns:xlink="http://www.w3.org/1999/xlink" x="0px" y="0px"
	 viewBox="0 0 515.6 36.3" style="enable-background:new 0 0 515.6 36.3;" xml:space="preserve">
<style type="text/css">
	.st0{fill:#131313;}
	.st1{fill:#E4582F;}
	.st2{fill:#229548;}
	.st3{fill:#D78D38;}
</style>
<g>
	<g>
		<path class="st0" d="M71.6,11.7c0-1.2,0.2-2.2,0.6-3.3c0.4-1,1-1.9,1.8-2.7C74.7,5,75.8,4.4,77,4c1.2-0.4,2.7-0.7,4.4-0.7
			c0.8,0,1.6,0,2.4,0.1c0.8,0.1,1.7,0.2,2.5,0.4c0.8,0.2,1.6,0.4,2.3,0.6c0.7,0.2,1.4,0.5,2,0.8c0.3,0.2,0.5,0.3,0.6,0.5
			c0,0.2,0,0.4-0.1,0.8l-1.1,3.1c-0.1,0.4-0.3,0.6-0.4,0.7c-0.1,0.1-0.4,0-0.7,0c-1.3-0.4-2.6-0.7-3.9-0.9c-1.3-0.2-2.5-0.4-3.6-0.4
			c-1.2,0-2.1,0.2-2.6,0.7c-0.5,0.4-0.7,1-0.7,1.6c0,0.4,0.1,0.7,0.2,1c0.2,0.3,0.4,0.6,0.8,0.9c0.4,0.3,0.9,0.6,1.5,0.9
			c0.6,0.3,1.4,0.6,2.3,1c1.4,0.6,2.7,1.1,3.9,1.7c1.2,0.6,2.2,1.2,3,1.9c0.8,0.7,1.5,1.6,2,2.5c0.5,1,0.7,2.1,0.7,3.5
			c0,1.5-0.3,2.7-0.8,3.8c-0.5,1.1-1.3,2-2.2,2.7c-0.9,0.7-2.1,1.3-3.4,1.6c-1.3,0.4-2.8,0.5-4.4,0.5c-0.9,0-1.8,0-2.8-0.1
			c-1-0.1-1.9-0.2-2.9-0.5c-0.9-0.2-1.9-0.5-2.8-0.8c-0.9-0.3-1.7-0.7-2.5-1.2c-0.2-0.1-0.4-0.3-0.4-0.5c0-0.2,0-0.4,0.1-0.8L72,26
			c0.1-0.3,0.3-0.5,0.5-0.6c0.2-0.1,0.4,0,0.7,0.1c0.5,0.2,1.2,0.4,1.8,0.7c0.7,0.2,1.3,0.4,2,0.6c0.7,0.2,1.4,0.3,2.1,0.5
			c0.7,0.1,1.4,0.2,2.2,0.2c0.9,0,1.6-0.1,2.1-0.2c0.6-0.2,1-0.4,1.4-0.6c0.4-0.3,0.6-0.6,0.7-0.9c0.1-0.3,0.2-0.7,0.2-1.1
			c0-0.4-0.1-0.8-0.2-1.1c-0.2-0.3-0.4-0.7-0.7-1c-0.3-0.3-0.8-0.6-1.4-0.9c-0.6-0.3-1.3-0.6-2.2-0.9c-1.5-0.5-2.8-1.1-4-1.7
			c-1.2-0.6-2.2-1.2-3-1.9c-0.9-0.7-1.5-1.5-2-2.3S71.6,12.8,71.6,11.7z"/>
		<path class="st0" d="M104.3,31.8c0,0.4-0.1,0.6-0.2,0.7c-0.1,0.1-0.4,0.1-0.8,0.1H99c-0.3,0-0.6-0.1-0.7-0.2
			c-0.2-0.1-0.2-0.4-0.2-0.7V6.3c0-0.8,0.2-1.4,0.5-1.8c0.3-0.5,1-0.7,2-0.7h10.1c1.5,0,2.8,0.2,4,0.7c1.2,0.5,2.2,1.1,3,1.9
			c0.8,0.8,1.5,1.7,1.9,2.8c0.4,1.1,0.7,2.3,0.7,3.6c0,0.7-0.1,1.6-0.3,2.7c-0.2,1.1-0.7,2.1-1.4,3.1c-0.7,1-1.8,1.9-3.2,2.6
			c-1.4,0.7-3.2,1.1-5.5,1.1h-5.5V31.8z M113.8,13.2c0-0.4-0.1-0.8-0.2-1.3c-0.1-0.5-0.3-0.9-0.6-1.3c-0.3-0.4-0.7-0.7-1.3-1
			c-0.5-0.3-1.2-0.4-2-0.4h-5.4v7.8h5.4c1.4,0,2.4-0.4,3.1-1.1C113.5,15.2,113.8,14.3,113.8,13.2z"/>
		<path class="st0" d="M151.4,18.1c0,2.4-0.3,4.5-0.8,6.3c-0.5,1.8-1.3,3.4-2.4,4.7c-1.1,1.3-2.4,2.3-4,2.9c-1.6,0.7-3.5,1-5.8,1
			c-4.3,0-7.4-1.3-9.5-3.9c-2.1-2.6-3.1-6.2-3.1-11c0-2.3,0.3-4.4,0.9-6.2c0.6-1.9,1.4-3.4,2.5-4.7c1.1-1.3,2.4-2.3,4-2.9
			c1.6-0.7,3.3-1,5.3-1c2.1,0,4,0.3,5.6,1c1.6,0.7,2.9,1.7,4,2.9c1.1,1.3,1.9,2.8,2.4,4.7C151.1,13.8,151.4,15.9,151.4,18.1z
			 M144.8,18.3c0-1.2-0.1-2.4-0.3-3.5c-0.2-1.1-0.5-2.1-1-3c-0.5-0.9-1.1-1.5-1.9-2c-0.8-0.5-1.8-0.8-3.1-0.8c-1,0-2,0.2-2.7,0.7
			c-0.8,0.5-1.4,1.1-2,2c-0.5,0.8-0.9,1.8-1.2,2.9c-0.2,1.1-0.4,2.3-0.4,3.5c0,1.5,0.1,2.8,0.3,3.9c0.2,1.2,0.5,2.1,1,3
			c0.5,0.8,1.1,1.5,1.9,1.9c0.8,0.4,1.8,0.7,3,0.7c1.2,0,2.2-0.3,3-0.8c0.8-0.5,1.4-1.2,1.9-2c0.5-0.8,0.8-1.8,1-2.9
			C144.7,20.6,144.8,19.5,144.8,18.3z"/>
		<path class="st0" d="M177.3,9.1h-7.5v22.6c0,0.4-0.1,0.6-0.2,0.7c-0.1,0.1-0.4,0.2-0.8,0.2h-4.4c-0.3,0-0.6-0.1-0.7-0.2
			c-0.2-0.1-0.2-0.4-0.2-0.7V9.1h-7.3c-0.5,0-0.8-0.3-0.8-0.8V4.7c0-0.4,0.1-0.6,0.2-0.7c0.1-0.1,0.3-0.2,0.6-0.2h21.1
			c0.3,0,0.5,0.1,0.7,0.2c0.1,0.1,0.2,0.3,0.2,0.7v3.7C178.1,8.9,177.8,9.1,177.3,9.1z"/>
		<path class="st0" d="M199.2,11.9l-1.7,7.6l-2.5,11c-0.2,1-0.5,1.6-0.9,1.9c-0.4,0.3-1,0.4-1.8,0.4h-2.4c-0.4,0-0.7,0-1,0
			c-0.3,0-0.6-0.1-0.8-0.2c-0.2-0.1-0.4-0.3-0.6-0.6c-0.2-0.3-0.3-0.7-0.4-1.2l-5.9-26.1c-0.1-0.4-0.1-0.6,0-0.7
			c0.1-0.1,0.3-0.1,0.6-0.1h5c0.4,0,0.7,0,0.9,0.1c0.2,0.1,0.4,0.4,0.4,0.8l2.1,12l1.2,7.4h0.3l1.6-7.5l2.2-10.4
			c0.2-0.9,0.5-1.5,0.9-1.8c0.4-0.3,1-0.5,1.9-0.5h2.4c0.8,0,1.4,0.2,1.7,0.5c0.3,0.3,0.5,0.9,0.7,1.7l2.3,10.8l1.5,7h0.2l1.2-7
			l2.1-12.1c0.1-0.4,0.2-0.7,0.3-0.8c0.2-0.1,0.4-0.2,0.8-0.2h5.3c0.2,0,0.4,0,0.5,0.1c0.1,0.1,0.1,0.3,0,0.7l-5.9,26
			c-0.1,0.5-0.3,0.9-0.4,1.2c-0.2,0.3-0.3,0.5-0.6,0.7c-0.2,0.2-0.5,0.2-0.8,0.3c-0.3,0-0.6,0-1,0h-2.3c-0.4,0-0.8,0-1.1-0.1
			c-0.3,0-0.6-0.1-0.8-0.3c-0.2-0.2-0.4-0.4-0.6-0.7c-0.2-0.3-0.3-0.7-0.5-1.2l-2.4-11l-1.6-7.6H199.2z"/>
		<path class="st0" d="M236.8,26.6h-9.4l-1.6,5.2c-0.1,0.3-0.2,0.5-0.4,0.6c-0.2,0.1-0.4,0.2-0.8,0.2h-4.8c-0.3,0-0.5-0.1-0.6-0.2
			c-0.1-0.2-0.1-0.4,0-0.6L227.8,6c0.1-0.5,0.3-0.8,0.5-1.1c0.2-0.3,0.4-0.5,0.6-0.7c0.2-0.2,0.5-0.3,0.8-0.4
			c0.3-0.1,0.7-0.1,1.1-0.1h2.5c0.5,0,0.9,0,1.2,0.1c0.3,0,0.6,0.1,0.9,0.3c0.2,0.2,0.5,0.4,0.6,0.7c0.2,0.3,0.4,0.7,0.5,1.2
			l8.6,25.8c0.1,0.2,0.1,0.3,0,0.5c-0.1,0.2-0.2,0.3-0.5,0.3h-4.9c-0.3,0-0.6,0-0.8-0.1c-0.2-0.1-0.3-0.3-0.4-0.6L236.8,26.6z
			 M228.9,21.6h6.5l-1.6-5.3l-1.5-5.9H232l-1.6,5.9L228.9,21.6z"/>
		<path class="st0" d="M268.2,19.1c0.9,0.4,1.6,1,2,1.8c0.4,0.8,0.7,1.6,0.9,2.6l2.1,8.2c0.1,0.2,0,0.4,0,0.6
			c-0.1,0.2-0.3,0.4-0.6,0.4h-4.3c-0.3,0-0.6,0-0.9-0.1c-0.3-0.1-0.6-0.3-0.7-0.7l-1.8-7.3c-0.4-1.3-0.9-2.3-1.6-2.8
			c-0.7-0.5-1.7-0.8-2.9-0.8h-4v10.8c0,0.4-0.1,0.6-0.2,0.7c-0.1,0.1-0.4,0.1-0.8,0.1h-4.4c-0.3,0-0.6-0.1-0.7-0.2
			c-0.2-0.1-0.2-0.4-0.2-0.7V6.3c0-0.8,0.2-1.4,0.5-1.9c0.3-0.4,1-0.6,2-0.6h10.1c3,0,5.3,0.8,6.9,2.3c1.6,1.5,2.5,3.5,2.5,6.1
			c0,1.4-0.3,2.7-1,4c-0.7,1.2-1.6,2.2-2.8,2.8L268.2,19.1z M265.5,12.5c0-0.4-0.1-0.7-0.2-1.1c-0.1-0.4-0.3-0.7-0.6-1.1
			c-0.3-0.3-0.6-0.6-1.1-0.8c-0.5-0.2-1.1-0.3-1.8-0.3h-5.6v6.6h5.5c1.2,0,2.1-0.3,2.8-0.9C265.2,14.3,265.5,13.5,265.5,12.5z"/>
		<path class="st0" d="M300.1,32.4c-0.1,0.2-0.3,0.2-0.7,0.2h-12.2c-1.5,0-2.8-0.2-3.8-0.7c-1-0.4-1.8-1-2.3-1.7
			c-0.6-0.7-1-1.5-1.2-2.4c-0.2-0.9-0.3-1.8-0.3-2.8V11.4c0-1,0.1-1.9,0.4-2.8c0.3-0.9,0.7-1.7,1.3-2.4c0.6-0.7,1.4-1.3,2.3-1.7
			c1-0.4,2.1-0.6,3.5-0.6H299c0.3,0,0.5,0.1,0.6,0.2c0.1,0.1,0.1,0.4,0.1,0.8v3.5c0,0.4-0.1,0.6-0.2,0.7c-0.1,0.1-0.3,0.2-0.6,0.2
			h-10.5c-1.1,0-1.8,0.2-2.1,0.7c-0.4,0.5-0.5,1.1-0.5,1.8v3.2h11.8c0.3,0,0.5,0.1,0.6,0.2c0.1,0.1,0.1,0.4,0.1,0.8v3.2
			c0,0.3,0,0.6-0.1,0.7c-0.1,0.2-0.3,0.2-0.6,0.2h-11.8v4.7c0,1,0.2,1.6,0.7,2c0.5,0.3,1.1,0.5,2,0.5h10.9c0.4,0,0.6,0.1,0.7,0.2
			c0.1,0.1,0.1,0.4,0.1,0.8v3.5C300.3,32,300.2,32.3,300.1,32.4z"/>
	</g>
	<path class="st1" d="M21.8,29c-2.5,3.5-7.4,4.3-10.9,1.8L7,28.1c-3.5-2.5-4.3-7.4-1.8-10.9l9.1-12.7c2.5-3.5,7.4-4.3,10.9-1.8
		l3.8,2.7c3.5,2.5,4.3,7.4,1.8,10.9L21.8,29z"/>
	<path class="st2" d="M50.5,29c-2.5,3.5-7.4,4.3-10.9,1.8l-3.8-2.7c-3.5-2.5-4.3-7.4-1.8-10.9l9.1-12.7c2.5-3.5,7.4-4.3,10.9-1.8
		l3.8,2.7c3.5,2.5,4.3,7.4,1.8,10.9L50.5,29z"/>
</g>
<rect x="310.5" y="3.8" class="st3" width="1.3" height="29"/>
<g>
	<path class="st3" d="M334.5,3.9V32H328V9.1h-5.6V3.9H334.5z"/>
	<path class="st3" d="M339,17.9c0-9.3,5.1-14.5,12-14.5c6.9,0,12,5.3,12,14.5c0,9.3-5.1,14.5-12,14.5C344.1,32.4,339,27.2,339,17.9z
		 M356.5,17.9c0-6.4-2.2-9-5.5-9c-3.2,0-5.5,2.6-5.5,9c0,6.4,2.2,9,5.5,9C354.3,26.9,356.5,24.3,356.5,17.9z"/>
	<path class="st3" d="M390.2,22.2V32h-4v-9.8L375.1,3.9h4.3l9,14.8l9-14.8h4L390.2,22.2z"/>
	<path class="st3" d="M424.9,28.5V32h-20.4V3.9h19.8v3.5h-15.8V16h14.1v3.4h-14.1v9.1H424.9z"/>
	<path class="st3" d="M448.9,24.9H434l-3.1,7h-4.1l12.7-28.1h4L456.2,32H452L448.9,24.9z M447.5,21.7L441.5,8l-6.1,13.8H447.5z"/>
	<path class="st3" d="M478.8,32l-6.1-8.6c-0.6,0-1.2,0.1-1.8,0.1H464V32h-4V3.9h11c7.3,0,11.7,3.7,11.7,9.8c0,4.3-2.2,7.5-6.2,8.9
		l6.7,9.4H478.8z M478.7,13.7c0-4-2.7-6.3-7.8-6.3H464V20h6.8C476,20,478.7,17.7,478.7,13.7z"/>
	<path class="st3" d="M486.2,28.7l1.5-3.1c2.1,1.9,5.7,3.3,9.3,3.3c4.9,0,6.9-1.9,6.9-4.3c0-6.9-17-2.5-17-13c0-4.3,3.4-8,10.8-8
		c3.3,0,6.7,0.9,9,2.5l-1.3,3.2c-2.4-1.6-5.2-2.3-7.7-2.3c-4.8,0-6.8,2-6.8,4.5c0,6.9,17,2.6,17,12.9c0,4.3-3.5,8-10.9,8
		C492.7,32.3,488.5,30.8,486.2,28.7z"/>
</g>
</svg>
