<?xml version="1.0" standalone="no"?>
<!DOCTYPE svg PUBLIC "-//W3C//DTD SVG 1.1//EN" "http://www.w3.org/Graphics/SVG/1.1/DTD/svg11.dtd" >
<svg xmlns="http://www.w3.org/2000/svg">
<metadata>Generated by IcoMoon</metadata>
<defs>
<font id="broker-icons" horiz-adv-x="1024">
<font-face units-per-em="1024" ascent="960" descent="-64" />
<missing-glyph horiz-adv-x="1024" />
<glyph unicode="&#x20;" horiz-adv-x="512" d="" />
<glyph unicode="&#xe900;" glyph-name="ic_acquisition_attribution" d="M442.752 660.352l7.552-7.552h394.496v-448h-434.176v-25.6h434.176c14.138 0 25.6 11.462 25.6 25.6v0 448c0 14.138-11.462 25.6-25.6 25.6v0h-384l-51.2 51.2h-179.2c-28.277 0-51.2-22.923-51.2-51.2v0-345.6h25.6v345.6c0 14.138 11.462 25.6 25.6 25.6v0h168.576zM152.32 243.2c0 21.915 17.765 39.68 39.68 39.68v0h51.2v24.32h-51.2c-35.346 0-64-28.654-64-64s28.654-64 64-64v0h51.2v24.32h-51.2c-21.915 0-39.68 17.765-39.68 39.68v0zM204.8 230.4h102.4v25.6h-102.4zM320 307.2h-51.2v-24.32h51.2c21.915 0 39.68-17.765 39.68-39.68s-17.765-39.68-39.68-39.68h-51.2v-24.32h51.2c35.346 0 64 28.654 64 64s-28.654 64-64 64v0zM665.6 499.2c21.208 0 38.4-17.192 38.4-38.4s-17.192-38.4-38.4-38.4c-21.208 0-38.4 17.192-38.4 38.4v0c0 21.208 17.192 38.4 38.4 38.4v0zM665.6 524.8c-35.346 0-64-28.654-64-64s28.654-64 64-64c35.346 0 64 28.654 64 64v0c0 35.346-28.654 64-64 64v0zM665.6 358.4c36.224 0 89.6-21.248 89.6-40.192v-23.808h-179.2v23.808c0 18.944 53.376 40.192 89.6 40.192zM665.6 384c-38.4 0-115.2-22.016-115.2-65.792v-49.408h230.4v49.408c0 43.776-76.8 65.792-115.2 65.792z" />
<glyph unicode="&#xe901;" glyph-name="ic_algo_developers" d="M512 268.8c21.208 0 38.4-17.192 38.4-38.4s-17.192-38.4-38.4-38.4c-21.208 0-38.4 17.192-38.4 38.4v0c0 21.208 17.192 38.4 38.4 38.4v0zM512 294.4c-35.346 0-64-28.654-64-64s28.654-64 64-64c35.346 0 64 28.654 64 64v0c0 35.346-28.654 64-64 64v0zM512 128c36.224 0 89.6-21.248 89.6-40.192v-23.808h-179.2v23.808c0 18.944 53.376 40.192 89.6 40.192zM512 153.6c-38.4 0-115.2-22.016-115.2-65.792v-49.408h230.4v49.408c0 43.776-76.8 65.792-115.2 65.792zM230.4 268.8c21.208 0 38.4-17.192 38.4-38.4s-17.192-38.4-38.4-38.4c-21.208 0-38.4 17.192-38.4 38.4v0c0 21.208 17.192 38.4 38.4 38.4v0zM230.4 294.4c-35.346 0-64-28.654-64-64s28.654-64 64-64c35.346 0 64 28.654 64 64v0c0 35.346-28.654 64-64 64v0zM230.4 128c36.224 0 89.6-21.248 89.6-40.192v-23.808h-179.2v23.808c0 18.944 53.376 40.192 89.6 40.192zM230.4 153.6c-38.4 0-115.2-22.016-115.2-65.792v-49.408h230.4v49.408c0 43.776-76.8 65.792-115.2 65.792zM793.6 268.8c21.208 0 38.4-17.192 38.4-38.4s-17.192-38.4-38.4-38.4c-21.208 0-38.4 17.192-38.4 38.4v0c0 21.208 17.192 38.4 38.4 38.4v0zM793.6 294.4c-35.346 0-64-28.654-64-64s28.654-64 64-64c35.346 0 64 28.654 64 64v0c0 35.346-28.654 64-64 64v0zM793.6 128c36.224 0 89.6-21.248 89.6-40.192v-23.808h-179.2v23.808c0 18.944 53.376 40.192 89.6 40.192zM793.6 153.6c-38.4 0-115.2-22.016-115.2-65.792v-49.408h230.4v49.408c0 43.776-76.8 65.792-115.2 65.792zM362.112 463.232l-144.768 144.768 144.768 144.768 18.176-18.048-126.72-126.72 126.72-126.72-18.176-18.048zM661.888 463.232l-18.176 18.048 126.72 126.72-126.72 126.72 18.176 18.048 144.768-144.768-144.768-144.768zM449.47 475.223l113.77 312.75 24.058-8.752-113.77-312.75-24.058 8.752z" />
<glyph unicode="&#xe902;" glyph-name="ic_automated_trading" d="M691.2 465.152c-34.048 0.64-48 15.744-49.792 29.568-1.913 17.386-3.004 37.548-3.004 57.964 0 6.624 0.115 13.221 0.343 19.789l-0.026-0.953c0 6.784 0 12.8 0 19.84 0.034 0.753 0.054 1.637 0.054 2.525 0 15.935-6.316 30.395-16.582 41.012l0.016-0.017c-12.16 11.075-28.386 17.873-46.198 17.92h-0.010v-25.6c10.827-0.351 20.631-4.459 28.215-11.055l-0.055 0.047c5.609-6.052 9.051-14.183 9.051-23.117 0-0.874-0.033-1.74-0.098-2.597l0.007 0.114c0-6.272 0-12.8 0-19.584-0.197-5.693-0.309-12.383-0.309-19.1 0-21.36 1.135-42.454 3.348-63.227l-0.223 2.583c2.682-16.78 12.589-30.815 26.37-39.028l0.254-0.14c-14.035-8.353-23.942-22.388-26.582-38.852l-0.042-0.316c-1.991-18.177-3.127-39.258-3.127-60.604 0-6.731 0.113-13.435 0.337-20.111l-0.026 0.971c0-6.656 0-12.8 0-19.584 0.008-0.285 0.013-0.62 0.013-0.957 0-19.37-15.702-35.072-35.072-35.072-0.725 0-1.445 0.022-2.159 0.065l0.098-0.005v-25.6c17.853 0.414 34.012 7.34 46.266 18.484l-0.058-0.052c10.25 10.601 16.566 25.060 16.566 40.995 0 0.888-0.020 1.771-0.058 2.649l0.004-0.125c0 6.4 0 12.8 0 19.84-0.203 5.625-0.318 12.232-0.318 18.867 0 20.406 1.092 40.556 3.22 60.396l-0.214-2.463c1.792 13.824 15.744 28.928 49.792 29.568v12.8zM448 627.2v25.6c-17.853-0.414-34.012-7.34-46.266-18.484l0.058 0.052c-10.25-10.601-16.566-25.060-16.566-40.995 0-0.888 0.020-1.771 0.058-2.649l-0.004 0.125c0-6.4 0-12.8 0-19.84 0.202-5.616 0.317-12.215 0.317-18.84 0-20.415-1.091-40.575-3.219-60.425l0.214 2.465c-1.792-13.824-15.744-28.928-49.792-29.568v-25.6c34.048-0.64 48-15.744 49.792-29.568 1.913-17.385 3.005-37.545 3.005-57.96 0-6.625-0.115-13.224-0.343-19.794l0.026 0.953c0-6.784 0-12.8 0-19.84-0.034-0.753-0.054-1.637-0.054-2.525 0-15.935 6.316-30.395 16.582-41.012l-0.016 0.017c12.324-10.678 28.497-17.208 46.193-17.28h0.015v25.6c-10.827 0.351-20.631 4.459-28.215 11.055l0.055-0.047c-5.609 6.052-9.051 14.183-9.051 23.117 0 0.874 0.033 1.74 0.098 2.597l-0.007-0.114c0 6.272 0 12.8 0 19.584 0.197 5.695 0.31 12.389 0.31 19.109 0 21.357-1.135 42.448-3.349 63.217l0.223-2.582c-2.682 16.78-12.589 30.815-26.37 39.028l-0.254 0.14c14.035 8.353 23.942 22.388 26.582 38.852l0.042 0.316c1.99 18.187 3.126 39.279 3.126 60.635 0 6.72-0.112 13.413-0.335 20.079l0.026-0.97c0 6.656 0 12.8 0 19.584-0.008 0.285-0.013 0.62-0.013 0.957 0 19.37 15.702 35.072 35.072 35.072 0.725 0 1.445-0.022 2.159-0.065l-0.098 0.005z" />
<glyph unicode="&#xe903;" glyph-name="ic_community" d="M576 230.4c0 35.346-28.654 64-64 64s-64-28.654-64-64c0-35.346 28.654-64 64-64v0c35.346 0 64 28.654 64 64v0zM473.6 230.4c0 21.208 17.192 38.4 38.4 38.4s38.4-17.192 38.4-38.4c0-21.208-17.192-38.4-38.4-38.4v0c-21.208 0-38.4 17.192-38.4 38.4v0zM512 153.6c-38.4 0-115.2-22.016-115.2-65.792v-49.408h230.4v49.408c0 43.776-76.8 65.792-115.2 65.792zM601.6 64h-179.2v23.808c0 18.944 53.376 40.192 89.6 40.192s89.6-21.248 89.6-40.192zM230.4 166.4c35.346 0 64 28.654 64 64s-28.654 64-64 64c-35.346 0-64-28.654-64-64v0c0-35.346 28.654-64 64-64v0zM230.4 268.8c21.208 0 38.4-17.192 38.4-38.4s-17.192-38.4-38.4-38.4c-21.208 0-38.4 17.192-38.4 38.4v0c0 21.208 17.192 38.4 38.4 38.4v0zM230.4 153.6c-38.4 0-115.2-22.016-115.2-65.792v-49.408h230.4v49.408c0 43.776-76.8 65.792-115.2 65.792zM320 64h-179.2v23.808c0 18.944 53.376 40.192 89.6 40.192s89.6-21.248 89.6-40.192zM729.6 230.4c0-35.346 28.654-64 64-64s64 28.654 64 64c0 35.346-28.654 64-64 64v0c-35.346 0-64-28.654-64-64v0zM793.6 268.8c21.208 0 38.4-17.192 38.4-38.4s-17.192-38.4-38.4-38.4c-21.208 0-38.4 17.192-38.4 38.4v0c0 21.208 17.192 38.4 38.4 38.4v0zM793.6 153.6c-38.4 0-115.2-22.016-115.2-65.792v-49.408h230.4v49.408c0 43.776-76.8 65.792-115.2 65.792zM883.2 64h-179.2v23.808c0 18.944 53.376 40.192 89.6 40.192s89.6-21.248 89.6-40.192zM327.552 571.136l-58.752-42.752v252.416h307.2v-25.6h25.6v34.176c-0.143 9.434-7.824 17.026-17.278 17.026-0.091 0-0.181-0.001-0.272-0.002h-323.314c-0.077 0.001-0.167 0.002-0.258 0.002-9.454 0-17.135-7.592-17.278-17.012v-294.413c0.179-4.736 4.062-8.508 8.826-8.508 2.455 0 4.676 1.002 6.277 2.619l0.001 0.001 84.352 61.312h28.544v25.6h-28.544c-0.027 0-0.059 0-0.091 0-5.64 0-10.855-1.824-15.085-4.915l0.072 0.050zM746.368 409.6c0.076-0.002 0.166-0.004 0.256-0.004 4.736 0 8.576 3.84 8.576 8.576 0 0.001 0 0.003 0 0.004v0 294.4c-0.143 9.434-7.824 17.026-17.278 17.026-0.091 0-0.181-0.001-0.272-0.002h-323.314c-0.077 0.001-0.167 0.002-0.258 0.002-9.454 0-17.135-7.592-17.278-17.012v-221.965c0.143-9.434 7.824-17.026 17.278-17.026 0.091 0 0.181 0.001 0.272 0.002h241.394l84.352-61.312c1.583-1.653 3.807-2.683 6.271-2.688h0.001zM729.6 473.6v-22.016l-58.752 42.752c-4.158 3.040-9.372 4.864-15.013 4.864-0.032 0-0.064 0-0.096 0h-233.339v204.8h307.2zM576 652.8h-102.4v-25.6h204.8v25.6h-102.4zM576 588.8h-102.4v-25.6h153.6v25.6h-51.2z" />
<glyph unicode="&#xe904;" glyph-name="ic_copy_trading" d="M652.8 537.6v-256h-204.8v256h204.8zM652.8 563.2h-204.8c-14.138 0-25.6-11.462-25.6-25.6v0-256c0-14.138 11.462-25.6 25.6-25.6v0h204.8c14.138 0 25.6 11.462 25.6 25.6v0 256c0 14.138-11.462 25.6-25.6 25.6v0zM576 640h-204.8c-14.138 0-25.6-11.462-25.6-25.6v0-256h25.6v256h204.8z" />
<glyph unicode="&#xe905;" glyph-name="ic_crm" d="M844.8 716.8h-678.4c-14.138 0-25.6-11.462-25.6-25.6v0-473.6c0-14.138 11.462-25.6 25.6-25.6v0h678.4c14.138 0 25.6 11.462 25.6 25.6v0 473.6c0 14.138-11.462 25.6-25.6 25.6v0zM844.8 691.2v-51.2h-678.4v51.2zM166.4 217.6v396.8h678.4v-396.8zM640 486.4h153.6v-25.6h-153.6v25.6zM665.6 435.2h102.4v-25.6h-102.4v25.6zM691.2 384h51.2v-25.6h-51.2v25.6zM563.2 588.8h25.6v-345.6h-25.6v345.6zM691.2 678.4h25.6v-25.6h-25.6v25.6zM742.4 678.4h25.6v-25.6h-25.6v25.6zM793.6 678.4h25.6v-25.6h-25.6v25.6zM429.056 472.704l-61.312-61.312-76.032 25.344-82.304-68.48 16.384-19.712 71.296 59.392 77.568-25.728 66.688 66.688 72.704 12.032-4.096 25.344-80.896-13.568z" />
<glyph unicode="&#xe906;" glyph-name="ic_dealing_desk" d="M366.208 732.672c-2.483 7.241-4.582 15.876-5.913 24.763l-0.103 0.837c-69.33-34.529-124.191-89.39-157.812-156.711l-0.908-2.009c9.724-1.434 18.359-3.533 26.674-6.33l-1.074 0.314c31.317 60.038 79.098 107.819 137.361 138.291l1.775 0.845zM227.328 302.208c-7.241-2.483-15.876-4.582-24.763-5.913l-0.837-0.103c34.529-69.33 89.39-124.191 156.711-157.812l2.009-0.908c1.434 9.724 3.533 18.359 6.33 26.674l-0.314-1.074c-60.038 31.317-107.819 79.098-138.291 137.361l-0.845 1.775zM796.672 593.792c7.241 2.483 15.876 4.582 24.763 5.913l0.837 0.103c-34.529 69.33-89.39 124.191-156.711 157.812l-2.009 0.908c-1.434-9.724-3.533-18.359-6.33-26.674l0.314 1.074c60.038-31.317 107.819-79.098 138.291-137.361l0.845-1.775zM657.792 163.328c2.483-7.241 4.582-15.876 5.913-24.763l0.103-0.837c69.33 34.529 124.191 89.39 157.812 156.711l0.908 2.009c-9.724 1.434-18.359 3.533-26.674 6.33l1.074-0.314c-31.317-60.038-79.098-107.819-137.361-138.291l-1.775-0.845zM844.8 576c-3.84 0-7.808 0-11.52 0-70.692 0-128-57.308-128-128s57.308-128 128-128v0c3.84 0 7.68 0 11.52 0 70.692 0 128 57.308 128 128s-57.308 128-128 128v0zM844.8 345.6h-2.56c-56.554 0-102.4 45.846-102.4 102.4s45.846 102.4 102.4 102.4v0h2.56c56.554 0 102.4-45.846 102.4-102.4s-45.846-102.4-102.4-102.4v0zM307.2 448c0.001 0.154 0.001 0.337 0.001 0.519 0 66.637-50.921 121.381-115.974 127.442l-0.507 0.038c-3.84 0-7.68 0-11.52 0-70.692 0-128-57.308-128-128s57.308-128 128-128v0c3.84 0 7.808 0 11.52 0 65.56 6.1 116.481 60.844 116.481 127.481 0 0.183 0 0.365-0.001 0.547v-0.028zM181.76 345.6h-2.56c-56.554 0-102.4 45.846-102.4 102.4s45.846 102.4 102.4 102.4v0h2.56c56.554 0 102.4-45.846 102.4-102.4s-45.846-102.4-102.4-102.4v0zM512 908.8c-70.692 0-128-57.308-128-128v0c0-3.84 0-7.808 0-11.52 0-70.692 57.308-128 128-128s128 57.308 128 128v0c0 3.84 0 7.68 0 11.52 0 70.692-57.308 128-128 128v0zM614.4 778.24c0-56.554-45.846-102.4-102.4-102.4s-102.4 45.846-102.4 102.4v0c0 0.896 0 1.664 0 2.56 0 56.554 45.846 102.4 102.4 102.4s102.4-45.846 102.4-102.4v0c0-0.896 0-1.664 0-2.56zM634.496 152.448c-16.010 53.711-64.956 92.203-122.893 92.203-67.149 0-122.221-51.706-127.573-117.475l-0.030-0.456c0-3.84 0-7.68 0-11.52 0-70.692 57.308-128 128-128s128 57.308 128 128v0c0 3.84 0 7.808 0 11.52-1.056 9.578-2.993 18.296-5.764 26.632l0.26-0.904zM512 12.8c-56.554 0-102.4 45.846-102.4 102.4v0c0 0.896 0 1.664 0 2.56 0 56.554 45.846 102.4 102.4 102.4s102.4-45.846 102.4-102.4v0c0-0.896 0-1.664 0-2.56 0-56.554-45.846-102.4-102.4-102.4v0zM502.016 821.504c1.29 1.379 2.872 2.467 4.649 3.17l0.087 0.030c1.861 0.734 4.016 1.16 6.271 1.16 0.18 0 0.36-0.003 0.539-0.008l-0.026 0.001c0.165 0.007 0.358 0.011 0.552 0.011 4.461 0 8.447-2.038 11.076-5.234l0.020-0.025c2.764-3.88 4.419-8.716 4.419-13.939 0-0.635-0.024-1.265-0.073-1.888l0.005 0.083h25.6c0.002 0.163 0.003 0.356 0.003 0.548 0 5.424-0.844 10.652-2.407 15.558l0.1-0.363c-1.457 4.915-3.737 9.184-6.711 12.871l0.055-0.071c-2.847 3.436-6.289 6.266-10.186 8.359l-0.182 0.089c-3.972 2.083-8.597 3.572-13.49 4.202l-0.206 0.022v18.688h-14.464v-18.816c-5.232-0.465-10.052-1.739-14.501-3.699l0.293 0.115c-4.216-1.889-7.819-4.386-10.882-7.426l0.002 0.002c-2.969-2.948-5.353-6.482-6.964-10.414l-0.076-0.21c-1.639-4.199-2.589-9.061-2.589-14.144s0.95-9.945 2.681-14.417l-0.093 0.273c2.085-4.18 4.65-7.767 7.689-10.89l-0.009 0.010c3.475-3.173 7.433-5.905 11.733-8.056l0.299-0.136c4.098-2.128 9.247-4.413 14.531-6.422l1.085-0.362 5.376-2.304 3.072-1.536c2.157-1.18 4.011-2.585 5.63-4.222l0.002-0.002c1.399-1.406 2.492-3.117 3.171-5.025l0.029-0.095c0.65-1.885 1.025-4.056 1.025-6.316 0-0.075 0-0.149-0.001-0.224v0.011c0.001-0.072 0.002-0.156 0.002-0.241 0-2.073-0.376-4.058-1.064-5.89l0.038 0.116c-0.733-1.864-1.821-3.446-3.193-4.729l-0.007-0.007c-1.458-1.382-3.208-2.472-5.145-3.168l-0.103-0.032c-2.052-0.731-4.419-1.154-6.885-1.154-0.099 0-0.199 0.001-0.298 0.002h0.015c-2.513 0.013-4.934 0.386-7.221 1.071l0.181-0.047c-2.39 0.703-4.451 1.894-6.155 3.466l0.011-0.010c-1.895 1.814-3.38 4.040-4.312 6.535l-0.040 0.121c-1.060 2.879-1.672 6.204-1.672 9.671 0 0.245 0.003 0.489 0.009 0.733l-0.001-0.036h-25.6c-0.008-0.312-0.012-0.68-0.012-1.049 0-6.118 1.179-11.961 3.323-17.313l-0.111 0.314c1.962-5.011 4.832-9.278 8.44-12.792l0.008-0.008c3.373-3.176 7.37-5.734 11.782-7.465l0.25-0.087c4.102-1.654 8.865-2.872 13.827-3.433l0.253-0.023v-17.28h13.952v17.92c5.276 0.47 10.139 1.697 14.663 3.577l-0.327-0.121c4.266 1.77 7.918 4.191 11.019 7.178l-0.011-0.010c2.975 2.945 5.36 6.48 6.965 10.415l0.075 0.209c1.544 3.898 2.438 8.413 2.438 13.137 0 0.241-0.002 0.482-0.007 0.723l0.001-0.036c0.008 0.281 0.012 0.612 0.012 0.944 0 4.923-0.993 9.614-2.788 13.884l0.088-0.236c-1.889 4.254-4.48 7.87-7.663 10.864l-0.017 0.016c-3.444 3.204-7.358 5.974-11.611 8.182l-0.293 0.138c-4.608 2.432-9.728 4.736-15.488 7.040l-4.48 2.048-4.224 2.176c-2.157 1.182-4.010 2.586-5.63 4.222l-0.002 0.002c-1.344 1.332-2.393 2.958-3.044 4.775l-0.028 0.089c-0.569 1.691-0.897 3.637-0.897 5.661 0 0.080 0.001 0.159 0.002 0.239v-0.012c0.048 2.121 0.419 4.138 1.066 6.029l-0.042-0.141c0.603 1.891 1.569 3.518 2.824 4.872l-0.008-0.008zM844.032 486.4c2.284 1.998 5.023 3.537 8.038 4.44l0.154 0.040c0.768 0 1.792 0 2.688 0 2.393 0.648 5.159 1.062 8.008 1.151l0.056 0.001c0.038 0 0.083 0 0.128 0 2.942 0 5.818-0.28 8.605-0.814l-0.285 0.045c3.039-0.571 5.661-1.28 8.199-2.167l-0.391 0.119 3.2 21.248c-3.456 0.768-6.912 1.536-10.24 1.92-3.077 0.463-6.628 0.727-10.24 0.727s-7.163-0.264-10.634-0.775l0.394 0.048c-3.835-0.541-7.249-1.346-10.539-2.425l0.427 0.121c-5.389-1.776-10.063-4.301-14.186-7.503l0.106 0.079-1.92-1.28c-4.544-3.941-8.214-8.758-10.77-14.202l-0.11-0.262c-2.737-5.926-4.491-12.826-4.859-20.090l-0.005-0.134h-15.36v-12.8h14.848v-10.88h-14.848v-12.8h14.848c0.066-7.408 1.613-14.438 4.358-20.831l-0.134 0.351c2.545-5.757 6.139-10.623 10.58-14.554l0.044-0.038c0.896-0.768 2.048-1.408 2.944-2.048 3.666-2.76 7.91-5.020 12.483-6.563l0.317-0.093c3.322-1.050 7.231-1.862 11.257-2.282l0.263-0.022c1.243-0.078 2.697-0.122 4.16-0.122s2.917 0.044 4.358 0.131l-0.198-0.010c0.079 0 0.173 0 0.267 0 3.965 0 7.876 0.233 11.72 0.685l-0.466-0.045c4.228 0.504 7.924 1.178 11.541 2.055l-0.661-0.135-3.2 21.12c-2.258-0.851-4.928-1.564-7.687-2.014l-0.249-0.034c-2.522-0.407-5.429-0.64-8.391-0.64-0.065 0-0.13 0-0.195 0h0.010c-2.758 0.067-5.401 0.39-7.956 0.946l0.276-0.050c-1.024 0-2.176 0-3.072 0-3.212 0.802-6.007 2.267-8.35 4.249l0.030-0.025c-2.381 2.141-4.256 4.797-5.454 7.795l-0.050 0.141c-1.459 3.747-2.304 8.085-2.304 12.621 0 0.063 0 0.126 0 0.189v-0.010h29.312v12.8h-29.312v10.88h29.312v12.8h-29.184c0.303 4.222 1.262 8.139 2.779 11.766l-0.091-0.246c1.391 2.927 3.289 5.398 5.604 7.4l0.028 0.024zM169.088 405.376h-3.84c1.265 1.509 2.338 3.24 3.148 5.112l0.052 0.136c0.339 0.658 0.685 1.461 0.979 2.288l0.045 0.144c0.814 2.724 1.282 5.855 1.282 9.095 0 0.133-0.001 0.265-0.002 0.398v-0.020 12.8h26.24v19.968h-27.52l-0.768 19.84c-0.033 0.415-0.051 0.898-0.051 1.385 0 4.318 1.464 8.293 3.923 11.457l-0.032-0.042c2.352 2.599 5.737 4.224 9.503 4.224 0.034 0 0.068 0 0.103 0h-0.005c0.054 0.001 0.117 0.001 0.18 0.001 1.942 0 3.818-0.281 5.591-0.804l-0.139 0.035c1.835-0.517 3.422-1.4 4.749-2.571l-0.013 0.011c0.743-0.851 1.384-1.819 1.887-2.867l0.033-0.077c0.41-0.522 0.792-1.109 1.121-1.728l0.031-0.064c0.736-1.949 1.162-4.202 1.162-6.555 0-0.216-0.004-0.43-0.011-0.644l0.001 0.031h25.6c0.002 0.133 0.002 0.29 0.002 0.447 0 5.224-0.987 10.218-2.786 14.805l0.095-0.276c-1.76 4.524-4.373 8.371-7.667 11.508l-0.013 0.012c-3.557 3.26-7.832 5.801-12.555 7.354l-0.245 0.070h-0.768c-4.661 1.544-10.027 2.435-15.601 2.435-0.185 0-0.37-0.001-0.555-0.003h0.028c-3.395-0.001-6.714-0.327-9.927-0.949l0.327 0.053c-2.521-0.445-4.716-1.022-6.836-1.757l0.308 0.093c-4.959-1.659-9.227-4.194-12.831-7.452l0.031 0.028c-3.516-3.281-6.3-7.299-8.113-11.811l-0.079-0.221c-1.865-4.623-2.947-9.985-2.947-15.599 0-0.186 0.001-0.372 0.004-0.557v0.028-19.84h-12.672v-20.096h14.208v-13.696q0-2.56 0-5.12c-0.133-1.739-0.451-3.351-0.938-4.888l0.042 0.152c-0.433-1.423-1.089-2.659-1.938-3.736l0.018 0.024c-0.829-1.018-1.976-1.748-3.289-2.041l-0.039-0.007h-8.064v-21.888h92.672v21.376h-53.12zM564.992 173.824h-28.8l-20.864-45.696-3.456-7.424-3.328 7.424-20.736 45.696h-28.928l23.296-44.416 9.6-18.048h-22.784v-15.36h29.44v-10.112h-29.44v-15.232h29.44v-24.32h26.24v24.32h27.904v15.232h-27.904v10.112h27.904v15.36h-20.48l9.6 18.048 23.296 44.416zM640.384 460.8h25.216v-25.6h-25.216v25.6zM358.4 460.8h25.216v-25.6h-25.216v25.6zM499.2 320h25.6v-25.6h-25.6v25.6zM499.2 601.6h25.6v-25.6h-25.6v25.6zM435.2 499.2v-102.4c0-14.138 11.462-25.6 25.6-25.6v0h102.4c14.138 0 25.6 11.462 25.6 25.6v0 102.4c0 14.138-11.462 25.6-25.6 25.6v0h-102.4c-14.138 0-25.6-11.462-25.6-25.6v0zM563.2 396.8h-102.4v102.4h102.4z" />
<glyph unicode="&#xe907;" glyph-name="ic_deposit_withdrawal" d="M868.48 486.4l-26.752 151.68-9.728 58.752-12.8 67.2c-4.41 24.165-25.299 42.243-50.41 42.243-3.129 0-6.192-0.281-9.165-0.818l0.312 0.047-453.504-79.872c-24.165-4.41-42.243-25.299-42.243-50.41 0-3.129 0.281-6.192 0.818-9.165l-0.047 0.312 13.568-77.568h283.52l254.464 44.8 26.624-151.296c0.252-1.35 0.397-2.902 0.397-4.489 0-12.56-9.045-23.007-20.976-25.183l-0.157-0.024-54.4-9.6c5.816-6.534 10.003-14.642 11.847-23.605l0.057-0.331 47.104 8.32c24.144 4.428 42.2 25.307 42.2 50.403 0 3.040-0.265 6.018-0.773 8.912l0.045-0.307zM473.6 664.064l-176.384-31.104-6.656 38.4c-0.252 1.35-0.397 2.902-0.397 4.489 0 12.56 9.045 23.007 20.976 25.183l0.157 0.024 453.376 79.744c0.652 0.059 1.41 0.093 2.176 0.093s1.524-0.034 2.273-0.1l-0.097 0.007c0.117 0.002 0.256 0.003 0.395 0.003 12.556 0 23.001-9.040 25.182-20.966l0.024-0.157 6.656-38.4zM704 128h-512v409.6h512v-76.8h25.6v76.8c0 14.138-11.462 25.6-25.6 25.6v0h-512c-14.138 0-25.6-11.462-25.6-25.6v0-409.6c0-14.138 11.462-25.6 25.6-25.6v0h512c14.138 0 25.6 11.462 25.6 25.6v0 76.8h-25.6zM742.4 431.488c-3.651 2.251-8.056 3.619-12.775 3.712h-230.425c-11.242-0.067-20.761-7.37-24.14-17.483l-0.052-0.181c-0.845-2.358-1.356-5.079-1.408-7.912v-153.624c0-14.138 11.462-25.6 25.6-25.6v0h230.4c4.73 0.051 9.14 1.376 12.915 3.648l-0.115-0.064c7.663 4.483 12.742 12.65 12.8 22.008v158.856c-1.763 7.249-6.428 13.171-12.666 16.573l-0.134 0.067zM729.6 256h-230.4v153.6h230.4v-153.6zM576 371.2c-21.059-0.195-38.055-17.312-38.055-38.398 0-21.208 17.192-38.4 38.4-38.4s38.4 17.192 38.4 38.4c0 11.517-5.070 21.85-13.101 28.889l-0.044 0.038c-6.713 5.884-15.565 9.474-25.255 9.474-0.121 0-0.242-0.001-0.363-0.002h0.018z" />
<glyph unicode="&#xe908;" glyph-name="ic_fix_api_trading" d="M591.872 615.296c7.057-0.031 13.435-2.912 18.047-7.551l61.697-61.697c4.639-4.634 7.508-11.038 7.508-18.112s-2.869-13.478-7.508-18.112v0l-43.648-43.648-97.92 97.92 43.648 43.648c4.613 4.64 10.991 7.521 18.042 7.552h0.006zM704 665.6l-57.728-57.728-18.176 18.048c-9.267 9.277-22.075 15.016-36.224 15.016s-26.957-5.739-36.224-15.016v0l-61.824-61.824 30.976-30.848-41.472-41.472 18.048-18.176 41.472 41.472 36.224-36.224-41.472-41.472 18.048-18.048 41.6 41.472 30.848-30.848 61.824 61.824c9.277 9.267 15.016 22.075 15.016 36.224s-5.739 26.957-15.016 36.224v0l-18.048 18.048 57.728 57.728-25.6 25.6zM421.504 455.552l98.048-98.048-43.648-43.648c-4.634-4.639-11.038-7.508-18.112-7.508s-13.478 2.869-18.112 7.508v0l-61.696 61.696c-4.639 4.634-7.508 11.038-7.508 18.112s2.869 13.478 7.508 18.112v0l43.648 43.648zM421.632 491.648l-61.952-61.696c-9.277-9.267-15.016-22.075-15.016-36.224s5.739-26.957 15.016-36.224v0l18.048-18.048-57.728-57.856 25.6-25.6 57.728 57.728 18.048-18.048c9.267-9.277 22.075-15.016 36.224-15.016s26.957 5.739 36.224 15.016v0l61.824 61.824-134.144 134.144z" />
<glyph unicode="&#xe909;" glyph-name="ic_IB_program" d="M357.76 615.552l35.84 25.6h-86.4l-102.4-17.024v-25.984l104.576 17.408h48.384zM759.808 333.696c-3.871-2.476-8.592-3.947-13.657-3.947-0.825 0-1.64 0.039-2.445 0.115l0.103-0.008c-6.799 0.13-13.3 1.197-19.446 3.076l0.502-0.132-20.864 7.040-106.112 105.6c-2.224 1.913-5.139 3.078-8.326 3.078-7.069 0-12.8-5.731-12.8-12.8 0-3.187 1.165-6.102 3.092-8.343l-0.014 0.017 111.36-111.488v-7.552c0-27.52-11.008-29.696-24.192-29.696-6.799 0.13-13.3 1.197-19.446 3.076l0.502-0.132-20.864 7.040-93.312 92.8c-2.224 1.913-5.139 3.078-8.326 3.078-7.069 0-12.8-5.731-12.8-12.8 0-3.187 1.165-6.102 3.092-8.343l-0.014 0.017 98.56-98.688v-7.552c0-27.52-11.008-29.696-24.192-29.696-6.799 0.13-13.3 1.197-19.446 3.076l0.502-0.132-20.864 6.784-80.512 80.256c-2.224 1.913-5.139 3.078-8.326 3.078-7.069 0-12.8-5.731-12.8-12.8 0-3.187 1.165-6.102 3.092-8.343l-0.014 0.017 85.76-86.016v-7.168c0-7.296-2.048-30.976-22.784-30.976-6.702 0.204-13.055 1.406-19.010 3.463l0.45-0.135c-41.6 21.888-175.104 133.248-223.616 174.848l-7.168 6.144h-60.672v-25.6h51.2s179.2-153.6 230.4-179.2c8.429-3.107 18.163-5.010 28.31-5.246l0.106-0.002c48.384 0.128 48.384 56.576 48.384 56.576 8.068-2.536 17.351-4.028 26.973-4.096h0.035c22.144 0 49.792 9.216 49.792 55.296 8.068-2.536 17.351-4.028 26.973-4.096h0.035c22.144 0 49.792 9.216 49.792 55.296 8.068-2.536 17.351-4.028 26.973-4.096h0.035c0.68-0.032 1.478-0.051 2.279-0.051 11.539 0 22.186 3.817 30.748 10.257l-0.131-0.095-2.304 2.688zM758.4 729.6h-5.12l-212.48-22.528c-10.909-1.093-20.632-5.46-28.356-12.089l0.068 0.057-75.52-53.888-35.328-25.6-55.040-39.552c-10.219-8.553-16.92-21.017-17.785-35.059l-0.007-0.141c-1.024-22.528 6.656-53.376 55.168-53.376 18.048 0 100.096 38.4 146.56 60.8 8.171 3.352 17.655 5.299 27.593 5.299 0.965 0 1.925-0.018 2.881-0.055l-0.138 0.004c0.382 0.005 0.832 0.007 1.284 0.007 14.45 0 28.263-2.727 40.952-7.695l-0.764 0.263q18.176-17.024 34.56-33.152l148.736-170.368c4.715-5.348 11.582-8.704 19.233-8.704 0.034 0 0.067 0 0.101 0h52.603v25.6h-52.352l-19.584 22.4-152.32 173.696v0.64c-4.627 4.457-9.995 8.188-15.893 10.981l-0.363 0.155c-14.522 6.547-31.44 10.554-49.242 11.005l-0.166 0.003h-5.888c-0.884 0.028-1.923 0.044-2.966 0.044-13.899 0-27.134-2.84-39.157-7.971l0.652 0.247c-109.824-51.712-133.504-56.96-136.32-57.344-0.922-0.084-1.993-0.132-3.076-0.132-7.884 0-15.173 2.545-21.090 6.859l0.102-0.071c-3.265 4.552-5.221 10.235-5.221 16.375 0 1.267 0.083 2.514 0.245 3.737l-0.015-0.144c0.516 6.518 3.57 12.236 8.163 16.231l0.029 0.025 166.784 119.168c3.844 3.297 8.73 5.483 14.103 6.008l0.105 0.008 211.072 22.656h2.56c0.012 0 0.026 0 0.040 0 3.738 0 7.289-0.801 10.49-2.241l-0.162 0.065 89.472-57.856v30.592l-76.8 49.664c-6.527 3.325-14.224 5.303-22.376 5.376h-0.024zM-25.6 503.040v-194.56h204.8v358.4h-204.8zM0 503.040v138.24h153.6v-307.2h-153.6zM38.4 384h25.6v-25.6h-25.6v25.6zM883.2 692.48v-409.6h204.8v409.6zM1062.4 308.48h-153.6v358.4h153.6zM934.4 359.68h25.6v-25.6h-25.6v25.6z" />
<glyph unicode="&#xe90a;" glyph-name="ic_introducing_brokers" d="M448 217.6c0-35.346 28.654-64 64-64s64 28.654 64 64c0 35.346-28.654 64-64 64v0c-35.346 0-64-28.654-64-64v0zM550.4 217.6c0-21.208-17.192-38.4-38.4-38.4s-38.4 17.192-38.4 38.4c0 21.208 17.192 38.4 38.4 38.4v0c21.208 0 38.4-17.192 38.4-38.4v0zM512 140.8c-38.4 0-115.2-22.016-115.2-65.792v-49.408h230.4v49.408c0 43.776-76.8 65.792-115.2 65.792zM601.6 51.2h-179.2v23.808c0 18.944 53.376 40.192 89.6 40.192s89.6-21.248 89.6-40.192zM512 678.4c35.346 0 64 28.654 64 64s-28.654 64-64 64c-35.346 0-64-28.654-64-64v0c0-35.346 28.654-64 64-64v0zM512 780.8c21.208 0 38.4-17.192 38.4-38.4s-17.192-38.4-38.4-38.4c-21.208 0-38.4 17.192-38.4 38.4v0c0 21.208 17.192 38.4 38.4 38.4v0zM627.2 599.808c0 43.776-76.8 65.792-115.2 65.792s-115.2-22.016-115.2-65.792v-49.408h230.4zM601.6 576h-179.2v23.808c0 18.944 53.376 40.192 89.6 40.192s89.6-21.248 89.6-40.192zM230.4 153.6c35.346 0 64 28.654 64 64s-28.654 64-64 64c-35.346 0-64-28.654-64-64v0c0-35.346 28.654-64 64-64v0zM230.4 256c21.208 0 38.4-17.192 38.4-38.4s-17.192-38.4-38.4-38.4c-21.208 0-38.4 17.192-38.4 38.4v0c0 21.208 17.192 38.4 38.4 38.4v0zM230.4 140.8c-38.4 0-115.2-22.016-115.2-65.792v-49.408h230.4v49.408c0 43.776-76.8 65.792-115.2 65.792zM320 51.2h-179.2v23.808c0 18.944 53.376 40.192 89.6 40.192s89.6-21.248 89.6-40.192zM729.6 217.6c0-35.346 28.654-64 64-64s64 28.654 64 64c0 35.346-28.654 64-64 64v0c-35.346 0-64-28.654-64-64v0zM832 217.6c0-21.208-17.192-38.4-38.4-38.4s-38.4 17.192-38.4 38.4c0 21.208 17.192 38.4 38.4 38.4v0c21.208 0 38.4-17.192 38.4-38.4v0zM793.6 140.8c-38.4 0-115.2-22.016-115.2-65.792v-49.408h230.4v49.408c0 43.776-76.8 65.792-115.2 65.792zM883.2 51.2h-179.2v23.808c0 18.944 53.376 40.192 89.6 40.192s89.6-21.248 89.6-40.192zM243.2 396.8h256v-64h25.6v64h256v-64h25.6v89.6h-281.6v102.4h-25.6v-102.4h-281.6v-89.6h25.6v64z" />
<glyph unicode="&#xe90b;" glyph-name="ic_live_chat" d="M258.304 378.88l-104.704-77.824v415.744h473.6v-51.2h25.6v51.2c0 14.138-11.462 25.6-25.6 25.6v0h-473.6c-14.138 0-25.6-11.462-25.6-25.6v0-441.472c0-7.069 5.731-12.8 12.8-12.8v0c3.624 0.014 6.891 1.533 9.211 3.963l0.005 0.005 123.52 91.904h72.064v25.6h-72.064c-5.747-0.030-11.040-1.949-15.296-5.167l0.064 0.047zM870.4 640h-473.6c-14.138 0-25.6-11.462-25.6-25.6v0-332.8c0-14.138 11.462-25.6 25.6-25.6v0h353.664l123.52-91.904c2.325-2.435 5.592-3.954 9.213-3.968h0.003c7.069 0 12.8 5.731 12.8 12.8v0 441.472c0 14.138-11.462 25.6-25.6 25.6v0zM870.4 256v-57.344l-104.704 77.824c-4.192 3.171-9.485 5.090-15.225 5.12h-353.671v332.8h473.6zM473.6 537.6h320v-25.6h-320v25.6zM473.6 460.8h320v-25.6h-320v25.6zM473.6 384h217.6v-25.6h-217.6v25.6z" />
<glyph unicode="&#xe90c;" glyph-name="ic_manual_trading" d="M448 486.4v-102.4h-102.4v102.4h102.4zM409.6 588.8h-25.6v-76.8h-38.4c-14.138 0-25.6-11.462-25.6-25.6v0-102.4c0-14.138 11.462-25.6 25.6-25.6v0h38.4v-76.8h25.6v76.8h38.4c14.138 0 25.6 11.462 25.6 25.6v0 102.4c0 14.138-11.462 25.6-25.6 25.6v0h-38.4v76.8zM678.4 563.2v-256h-102.4v256h102.4zM640 665.6h-25.6v-76.8h-38.4c-14.138 0-25.6-11.462-25.6-25.6v0-256c0-14.138 11.462-25.6 25.6-25.6v0h38.4v-51.2h25.6v51.2h38.4c14.138 0 25.6 11.462 25.6 25.6v0 256c0 14.138-11.462 25.6-25.6 25.6v0h-38.4v76.8z" />
<glyph unicode="&#xe90d;" glyph-name="ic_mobile_trading" d="M640 691.2h-243.2c-14.138 0-25.6-11.462-25.6-25.6v0-435.2c0-14.138 11.462-25.6 25.6-25.6v0h243.2c14.138 0 25.6 11.462 25.6 25.6v0 435.2c0 14.138-11.462 25.6-25.6 25.6v0zM640 665.6v-51.2h-243.2v51.2zM640 588.8v-281.6h-243.2v281.6zM396.8 230.4v51.2h243.2v-51.2zM473.6 652.8h89.6v-25.6h-89.6v25.6z" />
<glyph unicode="&#xe90e;" glyph-name="ic_notification_automation" d="M806.4 275.072v34.048l-165.888 145.536-19.84-16.64 185.728-162.944zM217.6 309.12v-34.048l185.728 162.944-19.84 16.64-165.888-145.536zM677.504 552.576l-95.744-80.64-69.76-58.368-294.4 247.296v-33.664l185.344-155.52 19.456-16.64 89.6-75.008 184.192 154.368c-3.328 2.688-6.528 5.632-9.6 8.704s-6.272 6.144-9.088 9.472zM832 286.592v-43.392h-640v460.8h456.96c3.518 9.889 7.49 18.337 12.166 26.322l-0.39-0.722h-468.736c-14.138 0-25.6-11.462-25.6-25.6v0-460.8c0-14.138 11.462-25.6 25.6-25.6v0h640c14.138 0 25.6 11.462 25.6 25.6v0 270.208c-7.192-3.411-15.708-6.517-24.539-8.85l-1.061-0.238zM793.6 780.8c-0.001 0-0.001 0-0.002 0-66.184 0-120.637-50.232-127.312-114.651l-0.046-0.549c0-4.224-0.64-8.448-0.64-12.8 0.062-32.167 11.98-61.539 31.616-83.989l-0.128 0.149q4.224-4.864 8.96-9.216c22.794-21.564 53.612-34.852 87.534-34.944h0.018c4.352 0 8.576 0 12.8 0.64 64.976 6.714 115.216 61.17 115.216 127.36 0 70.692-57.308 128-128 128-0.006 0-0.011 0-0.017 0h0.001zM857.6 572.928c-17.364-13.995-39.693-22.464-64-22.464-56.554 0-102.4 45.846-102.4 102.4s45.846 102.4 102.4 102.4c56.554 0 102.4-45.846 102.4-102.4 0-0.022 0-0.045 0-0.067v0.003c-0.021-32.223-14.922-60.962-38.203-79.718l-0.197-0.154zM773.888 704l-17.408-6.272v-20.48l3.84 1.152 26.368 8.192v-97.536h25.216v127.616h-2.688l-35.328-12.672z" />
<glyph unicode="&#xe90f;" glyph-name="ic_open_api_trading" d="M359.936 250.752c-10.6 0.010-20.193 4.313-27.136 11.264v0l-16.512 16.512c-6.939 6.947-11.23 16.541-11.23 27.136s4.291 20.189 11.231 27.136v0l179.2 179.2c-2.155 7.716-3.394 16.578-3.394 25.728 0 54.787 44.413 99.2 99.2 99.2 0.023 0 0.047 0 0.070 0h-0.004c0.026 0 0.057 0 0.089 0 12.035 0 23.577-2.111 34.277-5.982l-0.701 0.222 19.072-6.784-69.504-69.504 34.56-34.56 69.248 69.504 6.784-19.072c3.729-10.016 5.887-21.588 5.887-33.664 0-54.787-44.413-99.2-99.2-99.2-0.045 0-0.089 0-0.134 0h0.007c-9.104 0.006-17.921 1.22-26.305 3.491l0.705-0.163-179.2-179.2c-6.913-6.922-16.455-11.218-26.999-11.264h-0.009zM591.232 611.328c-0.087 0-0.189 0.001-0.291 0.001-40.648 0-73.6-32.952-73.6-73.6 0-9.241 1.703-18.085 4.813-26.234l-0.169 0.505 2.688-7.552-190.336-189.696c-2.3-2.314-3.722-5.503-3.722-9.024s1.422-6.71 3.723-9.025l16.511-16.511c2.32-2.339 5.535-3.786 9.088-3.786s6.768 1.448 9.087 3.785l190.209 190.209 7.552-2.688c7.305-2.615 15.733-4.126 24.514-4.126 20.35 0 38.805 8.118 52.301 21.293l-0.015-0.014c13.634 13.29 22.092 31.836 22.092 52.357 0 1.169-0.027 2.331-0.082 3.487l0.006-0.163-56.32-56.32-70.784 70.784 56.32 56.32z" />
<glyph unicode="&#xe910;" glyph-name="ic_registration_and_kyc" d="M843.776 323.584l-132.096 457.216h-26.88l7.68-25.6 126.72-438.912v-162.688h-51.2v112.768c0.070 0.71 0.11 1.534 0.11 2.368s-0.040 1.658-0.118 2.472l0.008-0.104-109.44 484.096-5.76 25.6h-25.6l5.12-25.6 110.080-488.832v-112.768h-38.4v76.8l-95.616 524.8-4.608 25.6h-181.376l-4.736-25.6-97.664-524.8v-76.8h-38.4v112.768l110.080 488.832 5.12 25.6h-25.6l-5.76-25.6-109.44-483.968c-0.070-0.71-0.11-1.534-0.11-2.368s0.040-1.658 0.118-2.472l-0.008 0.104v-112.896h-51.2v162.816l126.72 438.784 7.68 25.6h-26.88l-132.096-457.216c-0.639-2.184-1.012-4.694-1.024-7.289v-162.695c-0.011-0.272-0.017-0.591-0.017-0.912 0-13.334 10.565-24.201 23.781-24.687l0.044-0.001h617.984c13.26 0.487 23.825 11.354 23.825 24.688 0 0.321-0.006 0.64-0.018 0.957l0.001-0.046v162.688c-0.012 2.602-0.385 5.112-1.072 7.489l0.048-0.193zM431.744 691.2h162.304l7.552-38.4h-177.024zM605.696 627.2l8.704-51.2h-204.8l9.472 51.2zM619.648 550.4l9.344-51.2h-232.96l9.472 51.2zM633.6 473.6l9.344-51.2h-261.12l9.472 51.2zM647.552 396.8l11.648-64h-294.4l11.904 64zM663.936 307.2l11.648-64h-327.168l11.904 64zM582.4 755.2l6.4-38.4h-152.32l7.168 38.4zM345.6 153.6v64h332.8v-64z" />
<glyph unicode="&#xe911;" glyph-name="ic_sales_desk" d="M922.624 94.72c-34.816 79.616-113.664 130.816-228.352 148.48-2.241-4.182-5.063-7.738-8.41-10.718l-0.038-0.034-13.952-12.8c88.448-10.624 187.136-44.288 227.328-136.064 2.151-4.221 6.465-7.062 11.442-7.062 7.069 0 12.8 5.731 12.8 12.8 0 1.618-0.3 3.165-0.848 4.59l0.030-0.088zM315.52 241.152c-100.352-19.84-173.952-69.632-213.76-145.536-1.014-1.792-1.612-3.935-1.612-6.218 0-7.069 5.731-12.8 12.8-12.8 4.998 0 9.326 2.864 11.434 7.040l0.034 0.073c46.336 88.064 134.528 122.88 214.144 135.168l-16 13.824c-2.705 2.439-5.036 5.218-6.946 8.285l-0.094 0.163zM669.184 271.232l-52.736 46.976c-2.226 1.92-5.145 3.089-8.338 3.089-2.043 0-3.975-0.479-5.688-1.33l0.074 0.033-98.304-46.080-98.304 46.080c-1.589 0.761-3.455 1.206-5.424 1.206-3.281 0-6.274-1.235-8.54-3.265l0.012 0.011-52.736-46.72c-2.663-2.357-4.334-5.783-4.334-9.6s1.67-7.243 4.32-9.588l6.798-5.9 26.624-23.296 56.32-49.152c2.24-1.969 5.196-3.171 8.434-3.171 3.69 0 7.016 1.562 9.352 4.060l0.007 0.007 3.328 3.584v-11.776c0.039-6.315 1.596-12.257 4.325-17.492l-0.101 0.212c2.207-4.334 5.036-8.020 8.418-11.109l0.030-0.027-12.544-381.184c-0.005-0.134-0.008-0.292-0.008-0.45 0-3.52 1.421-6.708 3.721-9.022l38.399-38.399c2.314-2.3 5.503-3.722 9.024-3.722s6.71 1.422 9.025 3.723l38.399 38.399c2.299 2.313 3.72 5.502 3.72 9.022 0 0.158-0.003 0.316-0.009 0.473l0.001-0.023-12.8 380.8c7.854 6.943 12.786 17.038 12.8 28.285v18.435l9.088-9.6c2.343-2.506 5.668-4.067 9.358-4.067 3.237 0 6.194 1.202 8.448 3.184l-0.014-0.012 89.728 78.336c2.663 2.357 4.334 5.783 4.334 9.6s-1.67 7.243-4.32 9.588l-0.014 0.012zM627.2 250.112l-28.8-25.6-27.136-23.68-20.864 22.656-22.528 24.064-6.272 6.656 83.584 39.168 35.584-31.616zM514.56 128l12.8-366.080-25.6-25.6-25.6 25.6 12.8 366.080h25.6zM409.6 224.768l-28.416 24.832-14.080 12.8 35.584 31.616 83.712-39.68-6.144-6.528-22.4-23.936-20.992-22.528zM499.2 230.4l5.248 5.632 5.248-5.632zM481.664 202.368c1.989 1.456 4.467 2.357 7.15 2.432h25.618c7.069 0 12.8-5.731 12.8-12.8v0-25.6c0-7.069-5.731-12.8-12.8-12.8v0h-25.6c-7.069 0-12.8 5.731-12.8 12.8v0 25.6c0.067 2.379 0.773 4.579 1.951 6.453l-0.031-0.053c0.891 1.576 2.049 2.897 3.425 3.945l0.031 0.023zM475.776 339.968h56.832c70.692 0 128 57.308 128 128v0 17.664c1.664 3.456 3.072 7.040 4.352 10.752h4.096c6.243 0.385 12.042 1.902 17.322 4.348l-0.298-0.124c12.697 6.381 21.278 19.265 21.376 34.163v64.013c0 0.069 0.001 0.151 0.001 0.233 0 19.72-14.865 35.968-34 38.151l-0.177 0.016c-0.631 0.037-1.369 0.058-2.112 0.058s-1.481-0.021-2.213-0.063l0.101 0.005h-8.576v92.416c0 35.346-28.654 64-64 64v0h-184.704c-35.346 0-64-28.654-64-64v0-261.632c0-70.692 57.308-128 128-128v0zM373.376 729.6c0 21.208 17.192 38.4 38.4 38.4v0h184.832c21.208 0 38.4-17.192 38.4-38.4v0-31.616c-6.619 6.413-14.371 11.705-22.918 15.541l-0.506 0.203c-29.184 12.8-66.304 9.984-110.336-8.576-41.344 17.28-76.8 19.328-105.344 6.016-8.705-4.118-16.179-9.259-22.7-15.401l0.044 0.041zM373.376 650.624c6.258 16.471 18.211 29.585 33.398 37.197l0.394 0.179c22.656 10.496 52.608 7.552 89.6-8.576 1.525-0.693 3.307-1.097 5.184-1.097s3.659 0.404 5.265 1.129l-0.081-0.033c38.4 17.152 71.168 20.992 94.336 11.008 13.187-5.576 23.497-15.803 29.048-28.576l0.136-0.352c0.962-2.671 2.703-4.866 4.946-6.371l0.046-0.029v-163.84c-19.151-36.166-56.535-60.391-99.58-60.416h-0.004c-7.069 0-12.8-5.731-12.8-12.8s5.731-12.8 12.8-12.8v0c0.006 0 0.012 0 0.018 0 37.798 0 72.033 15.255 96.885 39.943l-0.007-0.007c-10.699-45.989-51.327-79.733-99.839-79.744h-57.345c-56.554 0-102.4 45.846-102.4 102.4v0z" />
<glyph unicode="&#xe912;" glyph-name="ic_strategy_providers" d="M576 230.4c0 35.346-28.654 64-64 64s-64-28.654-64-64c0-35.346 28.654-64 64-64v0c35.346 0 64 28.654 64 64v0zM473.6 230.4c0 21.208 17.192 38.4 38.4 38.4s38.4-17.192 38.4-38.4c0-21.208-17.192-38.4-38.4-38.4v0c-21.208 0-38.4 17.192-38.4 38.4v0zM512 153.6c-38.4 0-115.2-22.016-115.2-65.792v-49.408h230.4v49.408c0 43.776-76.8 65.792-115.2 65.792zM601.6 64h-179.2v23.808c0 18.944 53.376 40.192 89.6 40.192s89.6-21.248 89.6-40.192zM294.4 230.4c0 35.346-28.654 64-64 64s-64-28.654-64-64c0-35.346 28.654-64 64-64v0c35.346 0 64 28.654 64 64v0zM192 230.4c0 21.208 17.192 38.4 38.4 38.4s38.4-17.192 38.4-38.4c0-21.208-17.192-38.4-38.4-38.4v0c-21.208 0-38.4 17.192-38.4 38.4v0zM230.4 153.6c-38.4 0-115.2-22.016-115.2-65.792v-49.408h230.4v49.408c0 43.776-76.8 65.792-115.2 65.792zM320 64h-179.2v23.808c0 18.944 53.376 40.192 89.6 40.192s89.6-21.248 89.6-40.192zM793.6 294.4c-35.346 0-64-28.654-64-64s28.654-64 64-64c35.346 0 64 28.654 64 64v0c0 35.346-28.654 64-64 64v0zM793.6 192c-21.208 0-38.4 17.192-38.4 38.4s17.192 38.4 38.4 38.4c21.208 0 38.4-17.192 38.4-38.4v0c0-21.208-17.192-38.4-38.4-38.4v0zM793.6 153.6c-38.4 0-115.2-22.016-115.2-65.792v-49.408h230.4v49.408c0 43.776-76.8 65.792-115.2 65.792zM883.2 64h-179.2v23.808c0 18.944 53.376 40.192 89.6 40.192s89.6-21.248 89.6-40.192zM842.112 729.344l-182.912-39.168-162.56-162.56-126.208 63.104-185.344-119.168 13.824-21.504 173.056 111.232 129.792-64.896 170.24 170.24 175.488 37.632-5.376 25.088z" />
<glyph unicode="&#xe913;" glyph-name="ic_web_trading" d="M729.6 652.8h-435.2c-14.138 0-25.6-11.462-25.6-25.6v0-345.6c0-14.138 11.462-25.6 25.6-25.6v0h435.2c14.138 0 25.6 11.462 25.6 25.6v0 345.6c0 14.138-11.462 25.6-25.6 25.6v0zM729.6 627.2v-51.2h-435.2v51.2zM294.4 281.6v268.8h435.2v-268.8zM691.2 614.4h25.6v-25.6h-25.6v25.6zM640 614.4h25.6v-25.6h-25.6v25.6zM588.8 614.4h25.6v-25.6h-25.6v25.6zM307.2 614.4h25.6v-25.6h-25.6v25.6zM523.264 397.696l-89.344 25.6-106.88-53.376 11.52-23.040 97.92 49.024 89.856-25.6 170.88 92.032-12.032 22.528-161.92-87.168z" />
<glyph unicode="&#xe914;" glyph-name="ic_white_labels" d="M318.976 190.080c-1.69-0.794-3.668-1.264-5.754-1.28h-0.006c-5.687 0.078-10.56 3.486-12.764 8.359l-0.036 0.089-119.936 269.568c-0.62 1.536-0.979 3.318-0.979 5.184s0.36 3.647 1.013 5.28l-0.034-0.096 49.92 150.016c1.973 5.633 7.243 9.6 13.44 9.6v0c0.016 0 0.035 0 0.054 0 2.017 0 3.934-0.424 5.668-1.188l-0.090 0.035 32.64-14.080-0.512 28.16-21.504 9.216c-4.652 2.071-10.081 3.277-15.791 3.277-17.361 0-32.118-11.15-37.501-26.679l-0.084-0.279-51.2-149.888c-1.361-3.845-2.147-8.279-2.147-12.897 0-5.85 1.262-11.406 3.529-16.409l-0.101 0.25 120.064-269.44c6.299-14.18 20.259-23.89 36.487-23.89 5.836 0 11.378 1.256 16.372 3.512l-0.251-0.101 168.96 75.136-19.456 19.456zM872.32 447.104l-271.872 272c-8.923 8.949-21.088 14.662-34.583 15.228l-208.489 8.068c-28.371-0.339-51.241-23.417-51.241-51.837 0-0.721 0.015-1.44 0.044-2.154l-0.003 0.102 0.896-21.632 0.128-14.080v-14.208l1.152-28.288 4.992-128c0.745-13.491 6.527-25.503 15.48-34.296l0.008-0.008 272.128-272.512c9.397-9.36 22.359-15.146 36.672-15.146s27.275 5.787 36.674 15.148l-0.002-0.002 198.016 198.272c9.36 9.397 15.146 22.359 15.146 36.672s-5.787 27.275-15.148 36.674l0.002-0.002zM854.272 391.808l-198.144-198.144c-4.77-4.759-11.353-7.702-18.624-7.702s-13.854 2.943-18.624 7.703v0l-66.56 66.56-8.96 8.576-19.84 20.352-176.512 176.512c-4.519 4.512-7.401 10.663-7.678 17.484l-0.002 0.052-4.48 115.2-1.28 28.8v28.416l-1.28 33.792c-0.013 0.308-0.020 0.669-0.020 1.031 0 14.274 11.397 25.886 25.588 26.232l0.032 0.001h0.512l206.208-8.064c6.873-0.279 13.024-3.161 17.536-7.68v0l272.128-271.872c4.759-4.77 7.702-11.353 7.702-18.624s-2.943-13.854-7.703-18.624v0zM418.432 664.192c-21.208 0-38.4-17.192-38.4-38.4v0c0.379-7.893 2.709-15.169 6.514-21.451l-0.114 0.203c6.936-10.334 18.545-17.066 31.731-17.152h0.013c21.208 0 38.4 17.192 38.4 38.4s-17.192 38.4-38.4 38.4v0z" />
<glyph unicode="&#xe915;" glyph-name="ic_facebook" d="M539.2 32h-155.2v378.88h-128v148.48h128v109.44c-0.239 3.59-0.376 7.782-0.376 12.006 0 51.48 20.261 98.228 53.243 132.705l-0.068-0.071c34.412 31.524 80.459 50.84 131.017 50.84 3.666 0 7.309-0.102 10.925-0.302l-0.502 0.022c3.46 0.047 7.545 0.073 11.636 0.073 36.49 0 72.484-2.119 107.868-6.241l-4.303 0.408v-130.88l-80-1.92c-2.702 0.337-5.83 0.529-9.002 0.529-18.94 0-36.278-6.856-49.669-18.221l0.111 0.092c-9.923-12.847-15.905-29.178-15.905-46.907 0-2.074 0.082-4.129 0.243-6.161l-0.017 0.269v-96h148.48l-19.52-148.48h-128z" />
<glyph unicode="&#xe916;" glyph-name="ic_google" horiz-adv-x="1280" d="M384 518.080h360.32c5.168-25.131 8.127-54.013 8.127-83.587 0-42.139-6.007-82.876-17.211-121.4l0.764 3.066c-18.343-63.575-52.509-117.723-98.009-159.789l-0.231-0.211c-43.145-38.919-96.422-67.436-155.384-81.135l-2.376-0.465c-27.763-6.712-59.638-10.561-92.412-10.561-36.995 0-72.845 4.905-106.935 14.099l2.867-0.658c-53.006 13.925-99.122 38.137-138.186 70.553l0.586-0.473c-43.233 33.796-78.261 75.985-103.024 124.304l-0.976 2.096c-26.646 49.126-42.31 107.559-42.31 169.651 0 28.46 3.291 56.151 9.512 82.714l-0.483-2.444c5.972 36.018 17.716 68.299 34.351 97.428l-0.751-1.428c42.437 91.202 119.468 160.303 213.789 191.28l2.531 0.72c37.273 13.762 80.323 21.723 125.231 21.723 47.825 0 93.541-9.029 135.537-25.475l-2.528 0.872c47.672-18.886 88.561-45.081 123.423-77.646l-0.223 0.206c-5.826-7.922-12.243-14.847-19.358-20.984l-0.162-0.136c-6.552-5.205-12.159-11.219-16.78-17.962l-0.18-0.278c-12.815-10.334-24.296-20.801-35.117-31.914l-0.083-0.086c-12.23-11.833-23.731-24.145-34.589-37.017l-0.611-0.743c-23.028 22.833-51.698 40.011-83.732 49.257l-1.388 0.343c-18.335 5.851-39.425 9.224-61.302 9.224-18.122 0-35.703-2.314-52.465-6.663l1.447 0.319c-45.423-9.232-84.711-31.106-115.19-61.75l-0.010-0.010c-23.901-25.974-42.937-56.853-55.393-90.902l-0.607-1.898c-8.057-22.158-12.717-47.735-12.717-74.4s4.659-52.242 13.208-75.961l-0.491 1.561c17.587-48.925 49.517-89.123 90.669-116.586l0.851-0.534c23.761-17.447 52.091-30.197 82.824-36.26l1.336-0.22c13.951-2.697 29.995-4.24 46.4-4.24s32.449 1.543 47.996 4.492l-1.596-0.252c31.878 5.339 60.267 17.145 84.87 34.061l-0.71-0.461c40.86 25.709 69.252 68.027 75.75 117.25l0.090 0.83h-208.96v148.48zM1198.4 509.76v-96h-131.2v-128h-96v128h-131.2v96h131.84v132.16h96v-131.84z" />
<glyph unicode="&#xe917;" glyph-name="ic_instagram" d="M901.44 928c0.573 0.013 1.249 0.020 1.926 0.020 26.204 0 49.889-10.786 66.856-28.161l0.018-0.018c17.378-16.584 28.183-39.925 28.183-65.79 0-0.721-0.008-1.44-0.025-2.157l0.002 0.107v-768c0.002-0.235 0.003-0.512 0.003-0.789 0-25.855-10.797-49.189-28.128-65.738l-0.035-0.033c-16.985-17.393-40.67-28.18-66.874-28.18-0.677 0-1.353 0.007-2.026 0.022l0.101-0.002h-768c-1.128-0.049-2.452-0.077-3.782-0.077-25.598 0-48.791 10.293-65.667 26.966l0.009-0.009c-17.192 16.559-27.87 39.778-27.87 65.49 0 0.826 0.011 1.65 0.033 2.471l-0.003-0.121v768c-0.019 0.7-0.030 1.524-0.030 2.35 0 25.713 10.678 48.931 27.842 65.463l0.028 0.027c16.986 17.398 40.673 28.187 66.881 28.187 0.787 0 1.572-0.010 2.355-0.029l-0.116 0.002zM155.52 64h721.28c0.932-0.141 2.008-0.222 3.102-0.222 12.018 0 21.76 9.742 21.76 21.76 0 1.094-0.081 2.17-0.237 3.221l0.014-0.119v406.72h-101.44c2.635-14.114 4.256-30.468 4.478-47.159l0.002-0.201c0.021-1.286 0.034-2.804 0.034-4.324 0-78.26-32.366-148.96-84.442-199.446l-0.072-0.069c-50.528-51.96-121.104-84.199-199.21-84.199-1.628 0-3.253 0.014-4.874 0.042l0.244-0.003c-1.286-0.021-2.804-0.034-4.324-0.034-78.26 0-148.96 32.366-199.446 84.442l-0.069 0.072c-52.333 50.581-84.825 121.404-84.825 199.816 0 1.302 0.009 2.602 0.027 3.9l-0.002-0.197c-0.002 0.38-0.003 0.83-0.003 1.28 0 16.304 1.632 32.226 4.742 47.612l-0.259-1.533h-98.88v-408q0-23.36 22.4-23.36zM653.44 583.36c-33.847 34.959-81.206 56.659-133.634 56.659-0.945 0-1.887-0.007-2.829-0.021l0.142 0.002c-0.89 0.015-1.94 0.024-2.992 0.024-52.273 0-99.508-21.573-133.287-56.301l-0.041-0.043c-34.409-34.688-55.673-82.461-55.673-135.2s21.264-100.512 55.686-135.213l-0.012 0.013c33.848-35.334 81.413-57.293 134.107-57.293 0.778 0 1.555 0.005 2.331 0.014l-0.118-0.001c106.039 0 192 85.961 192 192v0c0.018 0.95 0.028 2.070 0.028 3.192 0 51.791-21.324 98.602-55.671 132.132l-0.037 0.036zM901.44 711.36v96c0.141 0.932 0.222 2.008 0.222 3.102 0 12.018-9.742 21.76-21.76 21.76-1.094 0-2.17-0.081-3.221-0.237l0.119 0.014h-96c-0.932 0.141-2.008 0.222-3.102 0.222-12.018 0-21.76-9.742-21.76-21.76 0-1.094 0.081-2.17 0.237-3.221l-0.014 0.119v-96q0-22.4 24.64-22.4h96q24.64 0.32 24.64 22.72z" />
<glyph unicode="&#xe918;" glyph-name="ic_linkedin" d="M300.16 763.52c0.009-0.505 0.014-1.101 0.014-1.699 0-27.558-11.129-52.516-29.139-70.626l0.004 0.005c-17.564-18.736-42.468-30.408-70.098-30.408-0.444 0-0.887 0.003-1.329 0.009l0.067-0.001c-0.469-0.008-1.023-0.013-1.578-0.013-27.632 0-52.538 11.675-70.054 30.361l-0.049 0.052c-17.817 18.072-28.82 42.903-28.82 70.304 0 0.709 0.007 1.416 0.022 2.121l-0.002-0.105c0 0.095-0.001 0.208-0.001 0.321 0 55.317 44.843 100.16 100.16 100.16 0.113 0 0.225 0 0.338-0.001h-0.018c0.095 0 0.208 0.001 0.321 0.001 55.317 0 100.16-44.843 100.16-100.16 0-0.113 0-0.225-0.001-0.338v0.018zM296.32 580.8v-527.36c0.014-0.276 0.022-0.599 0.022-0.924 0-5.883-2.602-11.157-6.718-14.736l-0.024-0.020c-3.872-3.539-9.038-5.719-14.712-5.76h-146.888c-0.396-0.028-0.858-0.043-1.323-0.043-11.134 0-20.16 9.026-20.16 20.16 0 0.466 0.016 0.928 0.047 1.385l-0.003-0.062v527.36c0.041 5.682 2.221 10.848 5.775 14.737l-0.015-0.017c3.599 4.14 8.874 6.742 14.756 6.742 0.325 0 0.648-0.008 0.969-0.024l-0.045 0.002h146.88c11.387-1.065 20.375-10.053 21.433-21.346l0.007-0.094zM722.24 437.12c-12.727 12.966-30.438 21.002-50.025 21.002-3.008 0-5.972-0.19-8.881-0.557l0.346 0.036c-2.456 0.256-5.306 0.403-8.19 0.403-26.786 0-50.627-12.609-65.91-32.216l-0.14-0.186c-13.644-22.491-21.719-49.674-21.719-78.743 0-3.257 0.101-6.49 0.301-9.696l-0.022 0.439v-285.12c0.028-0.396 0.043-0.858 0.043-1.323 0-11.134-9.026-20.16-20.16-20.16-0.466 0-0.928 0.016-1.385 0.047l0.062-0.003h-148.8c-5.682 0.041-10.848 2.221-14.737 5.775l0.017-0.015c-4.14 3.599-6.742 8.874-6.742 14.756 0 0.325 0.008 0.648 0.024 0.969l-0.002-0.045v528.32c1.065 11.387 10.053 20.375 21.346 21.433l0.094 0.007h146.24c0.308 0.017 0.669 0.027 1.032 0.027 4.429 0 8.519-1.451 11.821-3.905l-0.053 0.038c3.394-3.025 5.796-7.097 6.698-11.706l0.022-0.134v-10.56c1.265-3.413 1.998-7.355 1.998-11.468 0-0.806-0.028-1.606-0.083-2.398l0.006 0.107c36.208 32.928 84.538 53.090 137.576 53.090 3.835 0 7.646-0.105 11.43-0.314l-0.526 0.023c4.131 0.261 8.959 0.409 13.821 0.409 56.546 0 108.399-20.091 148.81-53.524l-0.391 0.315c36.446-35.746 59.037-85.505 59.037-140.541 0-4.821-0.173-9.601-0.514-14.334l0.037 0.635v-354.56c0.014-0.276 0.022-0.599 0.022-0.924 0-5.883-2.602-11.157-6.718-14.736l-0.024-0.020c-3.872-3.539-9.038-5.719-14.712-5.76h-153.928c-5.682 0.041-10.848 2.221-14.737 5.775l0.017-0.015c-4.14 3.599-6.742 8.874-6.742 14.756 0 0.325 0.008 0.648 0.024 0.969l-0.002-0.045v320c0.199 2.42 0.313 5.237 0.313 8.082 0 20.609-5.958 39.827-16.245 56.024l0.253-0.426z" />
<glyph unicode="&#xe919;" glyph-name="ic_twitter" d="M883.52 640v-24.32c-0.059-70.665-13.442-138.188-37.77-200.215l1.29 3.735c-26.118-67.748-61.366-126.142-105.006-177.141l0.686 0.821c-47.616-54.688-106.087-98.607-172.204-128.637l-3.156-1.283c-67.006-30.965-145.413-49.024-228.039-49.024-2.968 0-5.93 0.023-8.887 0.070l0.446-0.006c-1.493-0.015-3.256-0.023-5.022-0.023-109.22 0-210.883 32.358-295.924 88.012l2.065-1.268q22.080-2.24 46.72-2.24c1.115-0.012 2.433-0.018 3.752-0.018 90.247 0 173.258 30.977 238.982 82.879l-0.815-0.62c-43.254 1.009-82.846 15.889-114.705 40.343l0.465-0.343c-31.887 23.6-55.682 56.51-67.49 94.685l-0.35 1.315c10.656-2.829 22.893-4.462 35.509-4.48h0.011c0.135 0 0.296-0.001 0.456-0.001 18.21 0 35.653 3.285 51.768 9.295l-1.024-0.335c-45.1 8.916-83.525 32.826-110.77 66.218l-0.27 0.342c-27.653 32.176-44.489 74.343-44.489 120.443 0 0.632 0.003 1.263 0.009 1.894l-0.001-0.096v2.24c26.059-14.581 56.891-23.858 89.724-25.578l0.516-0.022c-52.496 33.825-86.765 91.986-86.765 158.152 0 1.437 0.016 2.871 0.048 4.301l-0.004-0.213c-0.005 0.515-0.008 1.125-0.008 1.734 0 35.406 9.88 68.505 27.033 96.689l-0.465-0.823c48.227-58.272 106.954-105.961 173.547-140.615l3.093-1.465c65.067-34.147 141.574-55.814 222.73-59.79l1.27-0.050c-3.191 13.549-5.159 29.189-5.437 45.242l-0.003 0.198c-0.015 0.893-0.024 1.946-0.024 3.002 0 52.43 21.702 99.791 56.614 133.59l0.050 0.048c33.736 34.21 80.596 55.401 132.405 55.401 1.377 0 2.75-0.015 4.119-0.045l-0.204 0.004c1.152 0.025 2.51 0.040 3.871 0.040 54.463 0 103.558-22.983 138.115-59.779l0.093-0.1c46.803 9.476 88.378 25.669 126.078 47.759l-1.918-1.039c-14.828-45.973-45.666-83.254-85.798-106.077l-0.922-0.483c41.902 4.564 80.231 14.729 115.978 29.81l-2.698-1.010c-26.999-39.413-59.228-72.863-96.169-100.331l-1.111-0.789z" />
<glyph unicode="&#xe91a;" glyph-name="ic_youtube" d="M486.080 515.2q37.76 0 120.96-2.24t125.12-4.16c0.959 0.016 2.090 0.025 3.223 0.025 18.294 0 36.040-2.344 52.955-6.747l-1.457 0.322c39.477-9.184 68.855-42.913 71.347-83.903l0.013-0.257c6.026-36.808 9.839-79.731 10.55-123.408l0.010-0.752q0-81.92-6.4-183.040c-1.971-19.421-7.193-37.199-15.129-53.405l0.409 0.925c-15.396-31.447-47.164-52.719-83.899-52.719-2.344 0-4.668 0.087-6.968 0.257l0.307-0.018q-216.64-6.4-320-6.4-35.84 0-99.84 2.24t-85.12 2.24c-16.71 0.304-32.618 3.327-47.434 8.644l1.034-0.324c-28.125 7.461-50.338 27.777-60.279 54.114l-0.201 0.606c-9.986 32.537-16.227 70.056-17.268 108.871l-0.012 0.569q0 86.4 4.8 197.76c1.825 23.657 5.57 45.483 11.137 66.57l-0.577-2.57c9.487 40.082 44.966 69.446 87.304 69.446 0.357 0 0.714-0.002 1.070-0.006h-0.054q64.96 1.28 254.4 7.36zM345.28 378.56v48.32h-155.84v-48.32h50.56v-282.56h52.48v282.56zM267.2 896h46.4c2.88 0 5.44-2.88 8.32-8.32q21.12-71.36 29.44-107.2s0-3.52 4.16-6.4c5.774 26.745 12.277 49.242 20.101 71.11l-1.221-3.91q1.92 6.4 6.4 22.080l6.4 24.32c1.239 3.996 4.324 7.081 8.232 8.296l0.088 0.024h46.4c-0.451-3.111-1.234-5.914-2.326-8.556l0.086 0.236c-1.241-1.005-2.075-2.472-2.238-4.135l-0.002-0.025q-8.32-29.44-27.2-88.32t-26.24-88.64c-2.365-6.244-3.865-13.463-4.156-20.991l-0.004-0.129v-124.16h-49.28q0 6.4 0 17.92c0 7.68 0 14.4 0 19.84 0.045 6.047 0.86 11.883 2.35 17.443l-0.11-0.483c0.168 4.433 0.263 9.638 0.263 14.866 0 53.667-10.077 104.981-28.443 152.152l0.979-2.858q-21.44 56.96-38.4 115.84zM469.12 96v246.72h-46.080v-174.72c0.039-0.553 0.061-1.198 0.061-1.849 0-9.731-4.936-18.309-12.441-23.368l-0.1-0.064c-2.729-4.518-7.613-7.492-13.192-7.492-2.049 0-4.004 0.401-5.791 1.129l0.103-0.037c-4.16 0-6.4 6.4-6.4 14.72v192h-46.4v-208.32c0.309-6.894 1.11-13.38 2.377-19.698l-0.137 0.818c1.589-14.722 13.949-26.082 28.961-26.082 4.722 0 9.181 1.124 13.125 3.119l-0.166-0.076c10.388 3.861 19.377 8.829 27.475 14.918l-0.275-0.198c4.903 3.439 9.041 7.576 12.374 12.321l0.106 0.159v-24zM565.12 684.8v-23.040q0-14.72 0-27.2c-0.753-8.813-1.885-16.69-3.43-24.418l0.23 1.378c-1.409-15.902-9.311-29.721-21.002-38.95l-0.118-0.090c-11.546-9.758-26.601-15.689-43.040-15.689-0.394 0-0.787 0.003-1.179 0.010l0.059-0.001c-0.524-0.017-1.14-0.026-1.759-0.026-15.519 0-29.643 5.971-40.2 15.742l0.039-0.036c-10.934 10.307-18.992 23.552-22.914 38.474l-0.126 0.566c-1.449 11.779-2.276 25.415-2.276 39.243 0 1.729 0.013 3.454 0.039 5.177l-0.003-0.26q0 80 2.24 103.040c1.487 31.686 27.538 56.814 59.458 56.814 1.598 0 3.182-0.063 4.749-0.187l-0.207 0.013c0.908 0.048 1.97 0.076 3.039 0.076 32.206 0 58.594-24.909 60.949-56.513l0.012-0.203c-0.126-0.769-0.198-1.656-0.198-2.56s0.072-1.791 0.211-2.655l-0.013 0.095c0.121-0.769 0.191-1.657 0.191-2.56s-0.069-1.791-0.203-2.657l0.012 0.097c0-7.040 0-17.6 0-32s6.4-25.92 6.4-32.96zM480 685.76v-58.88c-0.059-0.852-0.093-1.847-0.093-2.85 0-5.051 0.854-9.902 2.426-14.418l-0.093 0.308c3.036-6.357 9.414-10.671 16.8-10.671s13.764 4.314 16.752 10.559l0.048 0.112c1.476 4.221 2.329 9.087 2.329 14.153 0 0.988-0.032 1.968-0.096 2.939l0.007-0.132v128c-0.918 8.403-7.976 14.884-16.547 14.884-0.823 0-1.632-0.060-2.423-0.175l0.090 0.011c-0.406 0.032-0.88 0.051-1.358 0.051-8.732 0-16.030-6.135-17.82-14.33l-0.022-0.121c-1.431-3.343-2.263-7.234-2.263-11.319 0-0.408 0.008-0.815 0.025-1.219l-0.002 0.058c0-5.76 0-14.72 0-27.2s2.24-22.72 2.24-29.76zM553.6 113.6q8.32-6.4 27.2-18.88c5.798-3.699 12.866-5.896 20.447-5.896 5.939 0 11.564 1.348 16.584 3.756l-0.231-0.1c12.165 6.114 20.678 17.924 22.067 31.833l0.013 0.167c2.25 8.697 3.743 18.79 4.151 29.162l0.009 0.278v125.76c0.002 0.228 0.004 0.498 0.004 0.769 0 11.286-2.356 22.022-6.603 31.742l0.199-0.511c-2.056 15.379-11.715 28.114-25.011 34.445l-0.269 0.115c-3.745 1.166-8.051 1.838-12.514 1.838-11.352 0-21.689-4.347-29.438-11.466l0.031 0.028c-3.695-2.022-6.859-4.472-9.584-7.343l-0.016-0.017-7.36-7.36v104.96h-44.16v-330.88h44.16c-0.58 2.645-0.913 5.684-0.913 8.8s0.332 6.155 0.964 9.082l-0.051-0.282zM561.92 218.88v64q0 18.88 23.040 18.88c11.2 0 16.96-4.8 16.96-14.72v-140.8c-0.307-8.241-7.062-14.805-15.35-14.805-0.567 0-1.127 0.031-1.678 0.091l0.068-0.006q-23.040 1.92-23.040 18.88c-0.694 10.239-1.089 22.193-1.089 34.24s0.395 24.001 1.174 35.851l-0.085-1.611zM648 809.92v-195.52c0-8.32 2.88-13.44 8.32-14.72 1.034-0.233 2.221-0.367 3.439-0.367 4.379 0 8.355 1.725 11.287 4.532l-0.006-0.006c8.958 6.264 14.744 16.53 14.744 28.148 0 0.454-0.009 0.907-0.026 1.357l0.002-0.065v176.64h46.4v-250.24h-46.4v25.28l-10.56-10.56c-6.683-5.603-14.255-10.513-22.391-14.438l-0.649-0.282c-4.59-2.695-10.109-4.287-16-4.287s-11.41 1.592-16.151 4.369l0.151-0.082c-9.16 5.034-15.77 13.744-17.881 24.091l-0.039 0.229c-1.268 4.371-2.075 9.416-2.238 14.625l-0.002 0.095v208.96c12.321 1.468 26.592 2.306 41.058 2.306 2.441 0 4.876-0.024 7.305-0.071l-0.364 0.006zM808 210.56c0 5.44 0 13.44 0 23.040s0 18.56 0 26.24c-0.033 7.833-0.847 15.456-2.368 22.821l0.128-0.741c-0.389 17.995-7.501 34.257-18.916 46.439l0.036-0.039c-11.488 11.098-26.936 18.163-44.024 18.875l-0.136 0.005c-2.211 0.251-4.775 0.394-7.371 0.394-15.831 0-30.419-5.322-42.072-14.275l0.164 0.121c-13.032-10.956-21.297-27.219-21.44-45.416v-0.024c-2.006-21.097-3.149-45.615-3.149-70.4s1.144-49.303 3.381-73.505l-0.232 3.105c2.77-20.414 14.819-37.534 31.687-47.195l0.313-0.165c10.773-6.578 23.807-10.472 37.751-10.472 7.536 0 14.806 1.138 21.648 3.25l-0.519-0.138c18.111 4.031 32.86 15.839 40.803 31.656l0.157 0.344c5.284 9.872 8.387 21.595 8.387 34.043 0 7.723-1.195 15.166-3.409 22.156l0.142-0.519h-47.36c0.038-1.221 0.060-2.656 0.060-4.097 0-8.959-0.837-17.723-2.437-26.218l0.137 0.875q-2.24-18.88-18.88-18.88c-0.576-0.069-1.244-0.109-1.92-0.109-9.367 0-16.96 7.593-16.96 16.96 0 0.038 0 0.077 0 0.115v-0.006q-2.24 18.88-4.16 64 33.6-2.56 90.56-2.56zM757.44 248.32h-42.24c0 5.44 0 12.8 0 22.080s0 16.32 0 22.080 7.68 12.48 18.88 12.48c0.716 0.124 1.541 0.194 2.383 0.194 7.408 0 13.538-5.472 14.568-12.595l0.009-0.079c3.382-13.006 5.674-28.132 6.382-43.672l0.018-0.488z" />
<glyph unicode="&#xe91b;" glyph-name="ic_request_demo" d="M512 448c94.257 0 170.667 76.41 170.667 170.667s-76.41 170.667-170.667 170.667c-94.257 0-170.667-76.41-170.667-170.667v0c0-94.257 76.41-170.667 170.667-170.667v0zM512 362.667c-113.92 0-341.333-57.173-341.333-170.667v-85.333h682.667v85.333c0 113.493-227.413 170.667-341.333 170.667z" />
<glyph unicode="&#xe91c;" glyph-name="ic_subscribe" d="M938.667 661.333c0 47.128-38.205 85.333-85.333 85.333v0h-682.667c-47.128 0-85.333-38.205-85.333-85.333v0-469.333c0-2.56 0-5.12 0-7.253v0c3.857-43.903 40.449-78.081 85.025-78.081 0.109 0 0.217 0 0.326 0.001h682.65c0.115-0.001 0.25-0.001 0.386-0.001 44.274 0 80.673 33.717 84.919 76.875l0.028 0.352c0 2.56 0 4.693 0 7.253zM409.6 388.267l-59.307 46.080-179.627-162.56v304.213zM197.547 661.333h628.907l-314.453-244.48zM421.547 378.88l90.453-70.4 90.453 70.4 216.747-186.88h-614.4zM673.707 433.92l-59.307-45.653 238.933 187.733v-302.507z" />
<glyph unicode="&#xe91d;" glyph-name="ic_sales_desk_cr" d="M693.76 243.2c-2.56-3.84-5.12-7.68-8.96-10.24l-14.080-12.8c81.92-10.24 172.8-39.68 217.6-117.76 6.4 6.4 12.8 14.080 17.92 20.48-38.4 64-111.36 104.96-212.48 120.32zM339.2 218.88l-15.36 14.080c-2.56 2.56-5.12 5.12-6.4 8.96-88.32-17.92-156.16-57.6-198.4-119.040 5.12-6.4 11.52-14.080 17.92-20.48 46.080 74.24 128 104.96 202.24 116.48zM552.96 166.4v17.92l8.96-10.24c5.12-5.12 12.8-5.12 17.92-1.28l57.6 49.92 26.88 24.32 5.12 5.12c5.12 5.12 6.4 12.8 1.28 17.92 0 0-1.28 1.28-1.28 1.28l-52.48 47.36c-3.84 3.84-8.96 3.84-14.080 1.28l-98.56-46.080-98.56 46.080c-5.12 2.56-10.24 1.28-14.080-2.56l-52.48-47.36c-5.12-5.12-6.4-12.8-1.28-17.92 0 0 1.28-1.28 1.28-1.28l6.4-6.4 26.88-23.040 56.32-48.64c5.12-5.12 12.8-3.84 17.92 1.28l3.84 3.84v-11.52c0-6.4 1.28-11.52 3.84-16.64 2.56-3.84 5.12-7.68 8.96-11.52l-6.4-198.4c8.96-1.28 17.92-1.28 25.6-2.56l6.4 190.72h25.6l6.4-190.72c8.96 0 16.64 1.28 25.6 2.56l-6.4 198.4c7.68 6.4 12.8 16.64 12.8 28.16zM504.32 235.52l5.12-5.12h-10.24l5.12 5.12zM458.24 224l-20.48-23.040-56.32 48.64-14.080 12.8 35.84 32 83.2-39.68-6.4-6.4-21.76-24.32zM527.36 166.4c0-7.68-5.12-12.8-12.8-12.8h-25.6c-7.68 0-12.8 5.12-12.8 12.8v25.6c0 2.56 1.28 3.84 2.56 6.4 1.28 1.28 2.56 2.56 3.84 3.84v0c2.56 1.28 5.12 2.56 7.68 2.56h25.6c7.68 0 12.8-5.12 12.8-12.8v-25.6zM522.24 254.72l83.2 39.68 35.84-32-42.24-38.4-26.88-23.040-21.76 23.040-23.040 24.32-5.12 6.4zM707.84 535.040v64c0 19.2-14.080 35.84-34.56 38.4-1.28 0-2.56 0-3.84 0h-8.96v92.16c0 35.84-28.16 64-64 64h-184.32c-35.84 0-64-28.16-64-64v-261.12c0-70.4 57.6-128 128-128h56.32c70.4 0 128 57.6 128 128v17.92c1.28 3.84 2.56 6.4 3.84 10.24h3.84c6.4 0 11.52 1.28 16.64 3.84 14.080 6.4 23.040 19.2 23.040 34.56zM373.76 729.6c0 21.76 16.64 38.4 38.4 38.4h184.32c21.76 0 38.4-16.64 38.4-38.4v-32c-6.4 6.4-15.36 11.52-23.040 15.36-29.44 12.8-66.56 10.24-110.080-8.96-40.96 16.64-76.8 19.2-104.96 6.4-7.68-3.84-15.36-8.96-23.040-15.36v34.56zM636.16 491.52c-19.2-37.12-57.6-60.16-99.84-60.16-7.68 0-12.8-5.12-12.8-12.8s5.12-12.8 12.8-12.8c35.84 0 71.68 14.080 97.28 39.68-10.24-46.080-52.48-79.36-99.84-79.36h-57.6c-56.32 0-102.4 46.080-102.4 102.4v181.76c6.4 16.64 17.92 29.44 33.28 37.12 23.040 10.24 52.48 7.68 89.6-8.96 3.84-1.28 7.68-1.28 10.24 0 38.4 16.64 71.68 20.48 94.72 11.52 12.8-5.12 23.040-15.36 29.44-29.44 1.28-2.56 2.56-5.12 5.12-6.4v-162.56z" />
<glyph unicode="&#xe91e;" d="M60.8 204.8h892.8v-3.2h-892.8v3.2z" />
<glyph unicode="&#xe91f;" d="M60.8 313.6h892.8v-3.2h-892.8v3.2z" />
<glyph unicode="&#xe920;" d="M60.8 425.6h892.8v-3.2h-892.8v3.2z" />
<glyph unicode="&#xe921;" d="M60.8 534.4h892.8v-3.2h-892.8v3.2z" />
<glyph unicode="&#xe922;" d="M60.8 643.2h892.8v-3.2h-892.8v3.2z" />
<glyph unicode="&#xe923;" d="M60.8 755.2h892.8v-3.2h-892.8v3.2z" />
<glyph unicode="&#xe924;" d="M60.8 201.6v3.2h892.8v-3.2z" />
<glyph unicode="&#xe925;" d="M720 860.8h3.2v-784h-3.2v784z" />
<glyph unicode="&#xe926;" d="M601.6 860.8h3.2v-784h-3.2v784z" />
<glyph unicode="&#xe927;" d="M483.2 860.8h3.2v-784h-3.2v784z" />
<glyph unicode="&#xe928;" d="M364.8 860.8h3.2v-784h-3.2v784z" />
<glyph unicode="&#xe929;" d="M246.4 860.8h3.2v-784h-3.2v784z" />
<glyph unicode="&#xe92a;" d="M838.4 860.8h3.2v-784h-3.2v784z" />
<glyph unicode="&#xe92b;" d="M128 860.8h3.2v-784h-3.2v784z" />
<glyph unicode="&#xe92c;" d="M448 486.4v-102.4h-102.4v102.4h102.4zM409.6 588.8h-25.6v-76.8h-38.4c-12.8 0-25.6-12.8-25.6-25.6v0-102.4c0-12.8 12.8-25.6 25.6-25.6v0h38.4v-76.8h25.6v76.8h38.4c12.8 0 25.6 12.8 25.6 25.6v0 102.4c0 12.8-12.8 25.6-25.6 25.6v0h-38.4v76.8z" />
<glyph unicode="&#xe92d;" d="M678.4 563.2v-256h-102.4v256h102.4zM640 665.6h-25.6v-76.8h-38.4c-12.8 0-25.6-12.8-25.6-25.6v0-256c0-12.8 12.8-25.6 25.6-25.6v0h38.4v-51.2h25.6v51.2h38.4c12.8 0 25.6 12.8 25.6 25.6v0 256c0 12.8-12.8 25.6-25.6 25.6v0h-38.4c0 0 0 76.8 0 76.8z" />
<glyph unicode="&#xe92e;" d="M576 563.2h102.4v-256h-102.4v256z" />
<glyph unicode="&#xe92f;" d="M345.6 486.4h102.4v-102.4h-102.4v102.4z" />
<glyph unicode="&#xe930;" d="M57.6 867.2h19.2v-793.6h-19.2v793.6z" />
<glyph unicode="&#xe931;" d="M67.2 761.6h60.8v-16h-60.8v16z" />
<glyph unicode="&#xe932;" d="M67.2 649.6h60.8v-16h-60.8v16z" />
<glyph unicode="&#xe933;" d="M73.6 540.8h54.4v-12.8h-54.4v12.8z" />
<glyph unicode="&#xe934;" d="M76.8 428.8h54.4v-12.8h-54.4v12.8z" />
<glyph unicode="&#xe935;" d="M57.6 99.2h896v-22.4h-896v22.4z" />
<glyph unicode="&#xe936;" d="M73.6 320h54.4v-12.8h-54.4v12.8z" />
<glyph unicode="&#xe937;" d="M76.8 208h54.4v-12.8h-54.4v12.8z" />
</font>
</defs>
</svg>
